M48
; DRILL file {KiCad 5.1.4+dfsg1-1} date lau  4.jan 2020, 00:08:47 GMT
; FORMAT={-:-/ absolute / inch / decimal}
; #@! TF.CreationDate,2020-01-04T00:08:47+00:00
; #@! TF.GenerationSoftware,Kicad,Pcbnew,5.1.4+dfsg1-1
; #@! TF.FileFunction,Plated,1,2,PTH
FMAT,2
INCH
T1C0.0157
T2C0.0197
T3C0.0314
%
G90
G05
T1
X3.4646Y-2.7953
X3.4843Y-3.7008
X3.5039Y-3.4646
X3.5433Y-3.1299
X3.7598Y-2.9724
X3.7795Y-2.7953
X3.8189Y-3.5236
X3.8189Y-3.7008
X3.8386Y-3.3661
X3.8976Y-3.1102
X4.0945Y-2.9134
X4.0945Y-3.1102
X4.0945Y-3.3268
X4.0945Y-3.5039
X4.0945Y-3.7008
X4.2913Y-3.6417
X4.4013Y-3.3187
X4.4013Y-3.5155
X4.4445Y-3.1256
X4.6457Y-3.6614
X4.685Y-2.874
X4.7441Y-2.9724
X4.7441Y-3.1299
X4.7441Y-3.3071
X4.7557Y-3.5352
T3
X4.9823Y-3.189
X4.9823Y-3.2677
T2
G00X3.1949Y-3.1063
M15
G01X3.2224Y-3.1063
M16
G05
G00X3.1949Y-3.3661
M15
G01X3.2224Y-3.3661
M16
G05
T0
M30
