G04 #@! TF.GenerationSoftware,KiCad,Pcbnew,5.1.4+dfsg1-1*
G04 #@! TF.CreationDate,2020-01-04T00:08:43+00:00*
G04 #@! TF.ProjectId,LithiumBatteryEmulator,4c697468-6975-46d4-9261-747465727945,rev?*
G04 #@! TF.SameCoordinates,Original*
G04 #@! TF.FileFunction,Legend,Bot*
G04 #@! TF.FilePolarity,Positive*
%FSLAX46Y46*%
G04 Gerber Fmt 4.6, Leading zero omitted, Abs format (unit mm)*
G04 Created by KiCad (PCBNEW 5.1.4+dfsg1-1) date 2020-01-04 00:08:43*
%MOMM*%
%LPD*%
G04 APERTURE LIST*
%ADD10C,0.150000*%
%ADD11C,0.010000*%
G04 APERTURE END LIST*
D10*
X110688214Y-80952380D02*
X111164404Y-80952380D01*
X111164404Y-79952380D01*
X110354880Y-80952380D02*
X110354880Y-80285714D01*
X110354880Y-79952380D02*
X110402500Y-80000000D01*
X110354880Y-80047619D01*
X110307261Y-80000000D01*
X110354880Y-79952380D01*
X110354880Y-80047619D01*
X109450119Y-80904761D02*
X109545357Y-80952380D01*
X109735833Y-80952380D01*
X109831071Y-80904761D01*
X109878690Y-80857142D01*
X109926309Y-80761904D01*
X109926309Y-80476190D01*
X109878690Y-80380952D01*
X109831071Y-80333333D01*
X109735833Y-80285714D01*
X109545357Y-80285714D01*
X109450119Y-80333333D01*
X108640595Y-80904761D02*
X108735833Y-80952380D01*
X108926309Y-80952380D01*
X109021547Y-80904761D01*
X109069166Y-80809523D01*
X109069166Y-80428571D01*
X109021547Y-80333333D01*
X108926309Y-80285714D01*
X108735833Y-80285714D01*
X108640595Y-80333333D01*
X108592976Y-80428571D01*
X108592976Y-80523809D01*
X109069166Y-80619047D01*
X108164404Y-80285714D02*
X108164404Y-80952380D01*
X108164404Y-80380952D02*
X108116785Y-80333333D01*
X108021547Y-80285714D01*
X107878690Y-80285714D01*
X107783452Y-80333333D01*
X107735833Y-80428571D01*
X107735833Y-80952380D01*
X107307261Y-80904761D02*
X107212023Y-80952380D01*
X107021547Y-80952380D01*
X106926309Y-80904761D01*
X106878690Y-80809523D01*
X106878690Y-80761904D01*
X106926309Y-80666666D01*
X107021547Y-80619047D01*
X107164404Y-80619047D01*
X107259642Y-80571428D01*
X107307261Y-80476190D01*
X107307261Y-80428571D01*
X107259642Y-80333333D01*
X107164404Y-80285714D01*
X107021547Y-80285714D01*
X106926309Y-80333333D01*
X106069166Y-80904761D02*
X106164404Y-80952380D01*
X106354880Y-80952380D01*
X106450119Y-80904761D01*
X106497738Y-80809523D01*
X106497738Y-80428571D01*
X106450119Y-80333333D01*
X106354880Y-80285714D01*
X106164404Y-80285714D01*
X106069166Y-80333333D01*
X106021547Y-80428571D01*
X106021547Y-80523809D01*
X106497738Y-80619047D01*
X105164404Y-80952380D02*
X105164404Y-79952380D01*
X105164404Y-80904761D02*
X105259642Y-80952380D01*
X105450119Y-80952380D01*
X105545357Y-80904761D01*
X105592976Y-80857142D01*
X105640595Y-80761904D01*
X105640595Y-80476190D01*
X105592976Y-80380952D01*
X105545357Y-80333333D01*
X105450119Y-80285714D01*
X105259642Y-80285714D01*
X105164404Y-80333333D01*
X103497738Y-80285714D02*
X103497738Y-80952380D01*
X103926309Y-80285714D02*
X103926309Y-80809523D01*
X103878690Y-80904761D01*
X103783452Y-80952380D01*
X103640595Y-80952380D01*
X103545357Y-80904761D01*
X103497738Y-80857142D01*
X103021547Y-80285714D02*
X103021547Y-80952380D01*
X103021547Y-80380952D02*
X102973928Y-80333333D01*
X102878690Y-80285714D01*
X102735833Y-80285714D01*
X102640595Y-80333333D01*
X102592976Y-80428571D01*
X102592976Y-80952380D01*
X101688214Y-80952380D02*
X101688214Y-79952380D01*
X101688214Y-80904761D02*
X101783452Y-80952380D01*
X101973928Y-80952380D01*
X102069166Y-80904761D01*
X102116785Y-80857142D01*
X102164404Y-80761904D01*
X102164404Y-80476190D01*
X102116785Y-80380952D01*
X102069166Y-80333333D01*
X101973928Y-80285714D01*
X101783452Y-80285714D01*
X101688214Y-80333333D01*
X100831071Y-80904761D02*
X100926309Y-80952380D01*
X101116785Y-80952380D01*
X101212023Y-80904761D01*
X101259642Y-80809523D01*
X101259642Y-80428571D01*
X101212023Y-80333333D01*
X101116785Y-80285714D01*
X100926309Y-80285714D01*
X100831071Y-80333333D01*
X100783452Y-80428571D01*
X100783452Y-80523809D01*
X101259642Y-80619047D01*
X100354880Y-80952380D02*
X100354880Y-80285714D01*
X100354880Y-80476190D02*
X100307261Y-80380952D01*
X100259642Y-80333333D01*
X100164404Y-80285714D01*
X100069166Y-80285714D01*
X98402500Y-80857142D02*
X98450119Y-80904761D01*
X98592976Y-80952380D01*
X98688214Y-80952380D01*
X98831071Y-80904761D01*
X98926309Y-80809523D01*
X98973928Y-80714285D01*
X99021547Y-80523809D01*
X99021547Y-80380952D01*
X98973928Y-80190476D01*
X98926309Y-80095238D01*
X98831071Y-80000000D01*
X98688214Y-79952380D01*
X98592976Y-79952380D01*
X98450119Y-80000000D01*
X98402500Y-80047619D01*
X97973928Y-80428571D02*
X97640595Y-80428571D01*
X97497738Y-80952380D02*
X97973928Y-80952380D01*
X97973928Y-79952380D01*
X97497738Y-79952380D01*
X96497738Y-80952380D02*
X96831071Y-80476190D01*
X97069166Y-80952380D02*
X97069166Y-79952380D01*
X96688214Y-79952380D01*
X96592976Y-80000000D01*
X96545357Y-80047619D01*
X96497738Y-80142857D01*
X96497738Y-80285714D01*
X96545357Y-80380952D01*
X96592976Y-80428571D01*
X96688214Y-80476190D01*
X97069166Y-80476190D01*
X96069166Y-80952380D02*
X96069166Y-79952380D01*
X95497738Y-80952380D01*
X95497738Y-79952380D01*
X94069166Y-79952380D02*
X93878690Y-79952380D01*
X93783452Y-80000000D01*
X93688214Y-80095238D01*
X93640595Y-80285714D01*
X93640595Y-80619047D01*
X93688214Y-80809523D01*
X93783452Y-80904761D01*
X93878690Y-80952380D01*
X94069166Y-80952380D01*
X94164404Y-80904761D01*
X94259642Y-80809523D01*
X94307261Y-80619047D01*
X94307261Y-80285714D01*
X94259642Y-80095238D01*
X94164404Y-80000000D01*
X94069166Y-79952380D01*
X93212023Y-80952380D02*
X93212023Y-79952380D01*
X93212023Y-80428571D02*
X92640595Y-80428571D01*
X92640595Y-80952380D02*
X92640595Y-79952380D01*
X91688214Y-80952380D02*
X92164404Y-80952380D01*
X92164404Y-79952380D01*
X90688214Y-80285714D02*
X90450119Y-80952380D01*
X90212023Y-80285714D01*
X89831071Y-80857142D02*
X89783452Y-80904761D01*
X89831071Y-80952380D01*
X89878690Y-80904761D01*
X89831071Y-80857142D01*
X89831071Y-80952380D01*
X88831071Y-80952380D02*
X89402500Y-80952380D01*
X89116785Y-80952380D02*
X89116785Y-79952380D01*
X89212023Y-80095238D01*
X89307261Y-80190476D01*
X89402500Y-80238095D01*
X88402500Y-80857142D02*
X88354880Y-80904761D01*
X88402500Y-80952380D01*
X88450119Y-80904761D01*
X88402500Y-80857142D01*
X88402500Y-80952380D01*
X87973928Y-80047619D02*
X87926309Y-80000000D01*
X87831071Y-79952380D01*
X87592976Y-79952380D01*
X87497738Y-80000000D01*
X87450119Y-80047619D01*
X87402500Y-80142857D01*
X87402500Y-80238095D01*
X87450119Y-80380952D01*
X88021547Y-80952380D01*
X87402500Y-80952380D01*
X122164404Y-86952380D02*
X122164404Y-85952380D01*
X121735833Y-86952380D02*
X121735833Y-86428571D01*
X121783452Y-86333333D01*
X121878690Y-86285714D01*
X122021547Y-86285714D01*
X122116785Y-86333333D01*
X122164404Y-86380952D01*
X121402500Y-86285714D02*
X121021547Y-86285714D01*
X121259642Y-85952380D02*
X121259642Y-86809523D01*
X121212023Y-86904761D01*
X121116785Y-86952380D01*
X121021547Y-86952380D01*
X120831071Y-86285714D02*
X120450119Y-86285714D01*
X120688214Y-85952380D02*
X120688214Y-86809523D01*
X120640595Y-86904761D01*
X120545357Y-86952380D01*
X120450119Y-86952380D01*
X120116785Y-86285714D02*
X120116785Y-87285714D01*
X120116785Y-86333333D02*
X120021547Y-86285714D01*
X119831071Y-86285714D01*
X119735833Y-86333333D01*
X119688214Y-86380952D01*
X119640595Y-86476190D01*
X119640595Y-86761904D01*
X119688214Y-86857142D01*
X119735833Y-86904761D01*
X119831071Y-86952380D01*
X120021547Y-86952380D01*
X120116785Y-86904761D01*
X119259642Y-86904761D02*
X119164404Y-86952380D01*
X118973928Y-86952380D01*
X118878690Y-86904761D01*
X118831071Y-86809523D01*
X118831071Y-86761904D01*
X118878690Y-86666666D01*
X118973928Y-86619047D01*
X119116785Y-86619047D01*
X119212023Y-86571428D01*
X119259642Y-86476190D01*
X119259642Y-86428571D01*
X119212023Y-86333333D01*
X119116785Y-86285714D01*
X118973928Y-86285714D01*
X118878690Y-86333333D01*
X118402500Y-86857142D02*
X118354880Y-86904761D01*
X118402500Y-86952380D01*
X118450119Y-86904761D01*
X118402500Y-86857142D01*
X118402500Y-86952380D01*
X118402500Y-86333333D02*
X118354880Y-86380952D01*
X118402500Y-86428571D01*
X118450119Y-86380952D01*
X118402500Y-86333333D01*
X118402500Y-86428571D01*
X117212023Y-85904761D02*
X118069166Y-87190476D01*
X116164404Y-85904761D02*
X117021547Y-87190476D01*
X115402500Y-86285714D02*
X115402500Y-87095238D01*
X115450119Y-87190476D01*
X115497738Y-87238095D01*
X115592976Y-87285714D01*
X115735833Y-87285714D01*
X115831071Y-87238095D01*
X115402500Y-86904761D02*
X115497738Y-86952380D01*
X115688214Y-86952380D01*
X115783452Y-86904761D01*
X115831071Y-86857142D01*
X115878690Y-86761904D01*
X115878690Y-86476190D01*
X115831071Y-86380952D01*
X115783452Y-86333333D01*
X115688214Y-86285714D01*
X115497738Y-86285714D01*
X115402500Y-86333333D01*
X114926309Y-86952380D02*
X114926309Y-86285714D01*
X114926309Y-85952380D02*
X114973928Y-86000000D01*
X114926309Y-86047619D01*
X114878690Y-86000000D01*
X114926309Y-85952380D01*
X114926309Y-86047619D01*
X114592976Y-86285714D02*
X114212023Y-86285714D01*
X114450119Y-85952380D02*
X114450119Y-86809523D01*
X114402500Y-86904761D01*
X114307261Y-86952380D01*
X114212023Y-86952380D01*
X113878690Y-86952380D02*
X113878690Y-85952380D01*
X113450119Y-86952380D02*
X113450119Y-86428571D01*
X113497738Y-86333333D01*
X113592976Y-86285714D01*
X113735833Y-86285714D01*
X113831071Y-86333333D01*
X113878690Y-86380952D01*
X112545357Y-86285714D02*
X112545357Y-86952380D01*
X112973928Y-86285714D02*
X112973928Y-86809523D01*
X112926309Y-86904761D01*
X112831071Y-86952380D01*
X112688214Y-86952380D01*
X112592976Y-86904761D01*
X112545357Y-86857142D01*
X112069166Y-86952380D02*
X112069166Y-85952380D01*
X112069166Y-86333333D02*
X111973928Y-86285714D01*
X111783452Y-86285714D01*
X111688214Y-86333333D01*
X111640595Y-86380952D01*
X111592976Y-86476190D01*
X111592976Y-86761904D01*
X111640595Y-86857142D01*
X111688214Y-86904761D01*
X111783452Y-86952380D01*
X111973928Y-86952380D01*
X112069166Y-86904761D01*
X111164404Y-86857142D02*
X111116785Y-86904761D01*
X111164404Y-86952380D01*
X111212023Y-86904761D01*
X111164404Y-86857142D01*
X111164404Y-86952380D01*
X110259642Y-86904761D02*
X110354880Y-86952380D01*
X110545357Y-86952380D01*
X110640595Y-86904761D01*
X110688214Y-86857142D01*
X110735833Y-86761904D01*
X110735833Y-86476190D01*
X110688214Y-86380952D01*
X110640595Y-86333333D01*
X110545357Y-86285714D01*
X110354880Y-86285714D01*
X110259642Y-86333333D01*
X109688214Y-86952380D02*
X109783452Y-86904761D01*
X109831071Y-86857142D01*
X109878690Y-86761904D01*
X109878690Y-86476190D01*
X109831071Y-86380952D01*
X109783452Y-86333333D01*
X109688214Y-86285714D01*
X109545357Y-86285714D01*
X109450119Y-86333333D01*
X109402500Y-86380952D01*
X109354880Y-86476190D01*
X109354880Y-86761904D01*
X109402500Y-86857142D01*
X109450119Y-86904761D01*
X109545357Y-86952380D01*
X109688214Y-86952380D01*
X108926309Y-86952380D02*
X108926309Y-86285714D01*
X108926309Y-86380952D02*
X108878690Y-86333333D01*
X108783452Y-86285714D01*
X108640595Y-86285714D01*
X108545357Y-86333333D01*
X108497738Y-86428571D01*
X108497738Y-86952380D01*
X108497738Y-86428571D02*
X108450119Y-86333333D01*
X108354880Y-86285714D01*
X108212023Y-86285714D01*
X108116785Y-86333333D01*
X108069166Y-86428571D01*
X108069166Y-86952380D01*
X106878690Y-85904761D02*
X107735833Y-87190476D01*
X106545357Y-86952380D02*
X106545357Y-85952380D01*
X106450119Y-86571428D02*
X106164404Y-86952380D01*
X106164404Y-86285714D02*
X106545357Y-86666666D01*
X105735833Y-86952380D02*
X105735833Y-86285714D01*
X105735833Y-86380952D02*
X105688214Y-86333333D01*
X105592976Y-86285714D01*
X105450119Y-86285714D01*
X105354880Y-86333333D01*
X105307261Y-86428571D01*
X105307261Y-86952380D01*
X105307261Y-86428571D02*
X105259642Y-86333333D01*
X105164404Y-86285714D01*
X105021547Y-86285714D01*
X104926309Y-86333333D01*
X104878690Y-86428571D01*
X104878690Y-86952380D01*
X104450119Y-86904761D02*
X104354880Y-86952380D01*
X104164404Y-86952380D01*
X104069166Y-86904761D01*
X104021547Y-86809523D01*
X104021547Y-86761904D01*
X104069166Y-86666666D01*
X104164404Y-86619047D01*
X104307261Y-86619047D01*
X104402500Y-86571428D01*
X104450119Y-86476190D01*
X104450119Y-86428571D01*
X104402500Y-86333333D01*
X104307261Y-86285714D01*
X104164404Y-86285714D01*
X104069166Y-86333333D01*
X103069166Y-86952380D02*
X103640595Y-86952380D01*
X103354880Y-86952380D02*
X103354880Y-85952380D01*
X103450119Y-86095238D01*
X103545357Y-86190476D01*
X103640595Y-86238095D01*
X102164404Y-85952380D02*
X102640595Y-85952380D01*
X102688214Y-86428571D01*
X102640595Y-86380952D01*
X102545357Y-86333333D01*
X102307261Y-86333333D01*
X102212023Y-86380952D01*
X102164404Y-86428571D01*
X102116785Y-86523809D01*
X102116785Y-86761904D01*
X102164404Y-86857142D01*
X102212023Y-86904761D01*
X102307261Y-86952380D01*
X102545357Y-86952380D01*
X102640595Y-86904761D01*
X102688214Y-86857142D01*
X100973928Y-85904761D02*
X101831071Y-87190476D01*
X100164404Y-86952380D02*
X100640595Y-86952380D01*
X100640595Y-85952380D01*
X99831071Y-86952380D02*
X99831071Y-86285714D01*
X99831071Y-85952380D02*
X99878690Y-86000000D01*
X99831071Y-86047619D01*
X99783452Y-86000000D01*
X99831071Y-85952380D01*
X99831071Y-86047619D01*
X99497738Y-86285714D02*
X99116785Y-86285714D01*
X99354880Y-85952380D02*
X99354880Y-86809523D01*
X99307261Y-86904761D01*
X99212023Y-86952380D01*
X99116785Y-86952380D01*
X98783452Y-86952380D02*
X98783452Y-85952380D01*
X98354880Y-86952380D02*
X98354880Y-86428571D01*
X98402500Y-86333333D01*
X98497738Y-86285714D01*
X98640595Y-86285714D01*
X98735833Y-86333333D01*
X98783452Y-86380952D01*
X97878690Y-86952380D02*
X97878690Y-86285714D01*
X97878690Y-85952380D02*
X97926309Y-86000000D01*
X97878690Y-86047619D01*
X97831071Y-86000000D01*
X97878690Y-85952380D01*
X97878690Y-86047619D01*
X96973928Y-86285714D02*
X96973928Y-86952380D01*
X97402500Y-86285714D02*
X97402500Y-86809523D01*
X97354880Y-86904761D01*
X97259642Y-86952380D01*
X97116785Y-86952380D01*
X97021547Y-86904761D01*
X96973928Y-86857142D01*
X96497738Y-86952380D02*
X96497738Y-86285714D01*
X96497738Y-86380952D02*
X96450119Y-86333333D01*
X96354880Y-86285714D01*
X96212023Y-86285714D01*
X96116785Y-86333333D01*
X96069166Y-86428571D01*
X96069166Y-86952380D01*
X96069166Y-86428571D02*
X96021547Y-86333333D01*
X95926309Y-86285714D01*
X95783452Y-86285714D01*
X95688214Y-86333333D01*
X95640595Y-86428571D01*
X95640595Y-86952380D01*
X94831071Y-86428571D02*
X94688214Y-86476190D01*
X94640595Y-86523809D01*
X94592976Y-86619047D01*
X94592976Y-86761904D01*
X94640595Y-86857142D01*
X94688214Y-86904761D01*
X94783452Y-86952380D01*
X95164404Y-86952380D01*
X95164404Y-85952380D01*
X94831071Y-85952380D01*
X94735833Y-86000000D01*
X94688214Y-86047619D01*
X94640595Y-86142857D01*
X94640595Y-86238095D01*
X94688214Y-86333333D01*
X94735833Y-86380952D01*
X94831071Y-86428571D01*
X95164404Y-86428571D01*
X93735833Y-86952380D02*
X93735833Y-86428571D01*
X93783452Y-86333333D01*
X93878690Y-86285714D01*
X94069166Y-86285714D01*
X94164404Y-86333333D01*
X93735833Y-86904761D02*
X93831071Y-86952380D01*
X94069166Y-86952380D01*
X94164404Y-86904761D01*
X94212023Y-86809523D01*
X94212023Y-86714285D01*
X94164404Y-86619047D01*
X94069166Y-86571428D01*
X93831071Y-86571428D01*
X93735833Y-86523809D01*
X93402500Y-86285714D02*
X93021547Y-86285714D01*
X93259642Y-85952380D02*
X93259642Y-86809523D01*
X93212023Y-86904761D01*
X93116785Y-86952380D01*
X93021547Y-86952380D01*
X92831071Y-86285714D02*
X92450119Y-86285714D01*
X92688214Y-85952380D02*
X92688214Y-86809523D01*
X92640595Y-86904761D01*
X92545357Y-86952380D01*
X92450119Y-86952380D01*
X91735833Y-86904761D02*
X91831071Y-86952380D01*
X92021547Y-86952380D01*
X92116785Y-86904761D01*
X92164404Y-86809523D01*
X92164404Y-86428571D01*
X92116785Y-86333333D01*
X92021547Y-86285714D01*
X91831071Y-86285714D01*
X91735833Y-86333333D01*
X91688214Y-86428571D01*
X91688214Y-86523809D01*
X92164404Y-86619047D01*
X91259642Y-86952380D02*
X91259642Y-86285714D01*
X91259642Y-86476190D02*
X91212023Y-86380952D01*
X91164404Y-86333333D01*
X91069166Y-86285714D01*
X90973928Y-86285714D01*
X90735833Y-86285714D02*
X90497738Y-86952380D01*
X90259642Y-86285714D02*
X90497738Y-86952380D01*
X90592976Y-87190476D01*
X90640595Y-87238095D01*
X90735833Y-87285714D01*
X89878690Y-86428571D02*
X89545357Y-86428571D01*
X89402500Y-86952380D02*
X89878690Y-86952380D01*
X89878690Y-85952380D01*
X89402500Y-85952380D01*
X88973928Y-86952380D02*
X88973928Y-86285714D01*
X88973928Y-86380952D02*
X88926309Y-86333333D01*
X88831071Y-86285714D01*
X88688214Y-86285714D01*
X88592976Y-86333333D01*
X88545357Y-86428571D01*
X88545357Y-86952380D01*
X88545357Y-86428571D02*
X88497738Y-86333333D01*
X88402500Y-86285714D01*
X88259642Y-86285714D01*
X88164404Y-86333333D01*
X88116785Y-86428571D01*
X88116785Y-86952380D01*
X87212023Y-86285714D02*
X87212023Y-86952380D01*
X87640595Y-86285714D02*
X87640595Y-86809523D01*
X87592976Y-86904761D01*
X87497738Y-86952380D01*
X87354880Y-86952380D01*
X87259642Y-86904761D01*
X87212023Y-86857142D01*
X86592976Y-86952380D02*
X86688214Y-86904761D01*
X86735833Y-86809523D01*
X86735833Y-85952380D01*
X85783452Y-86952380D02*
X85783452Y-86428571D01*
X85831071Y-86333333D01*
X85926309Y-86285714D01*
X86116785Y-86285714D01*
X86212023Y-86333333D01*
X85783452Y-86904761D02*
X85878690Y-86952380D01*
X86116785Y-86952380D01*
X86212023Y-86904761D01*
X86259642Y-86809523D01*
X86259642Y-86714285D01*
X86212023Y-86619047D01*
X86116785Y-86571428D01*
X85878690Y-86571428D01*
X85783452Y-86523809D01*
X85450119Y-86285714D02*
X85069166Y-86285714D01*
X85307261Y-85952380D02*
X85307261Y-86809523D01*
X85259642Y-86904761D01*
X85164404Y-86952380D01*
X85069166Y-86952380D01*
X84592976Y-86952380D02*
X84688214Y-86904761D01*
X84735833Y-86857142D01*
X84783452Y-86761904D01*
X84783452Y-86476190D01*
X84735833Y-86380952D01*
X84688214Y-86333333D01*
X84592976Y-86285714D01*
X84450119Y-86285714D01*
X84354880Y-86333333D01*
X84307261Y-86380952D01*
X84259642Y-86476190D01*
X84259642Y-86761904D01*
X84307261Y-86857142D01*
X84354880Y-86904761D01*
X84450119Y-86952380D01*
X84592976Y-86952380D01*
X83831071Y-86952380D02*
X83831071Y-86285714D01*
X83831071Y-86476190D02*
X83783452Y-86380952D01*
X83735833Y-86333333D01*
X83640595Y-86285714D01*
X83545357Y-86285714D01*
X110688214Y-77952380D02*
X111164404Y-77952380D01*
X111164404Y-76952380D01*
X110354880Y-77952380D02*
X110354880Y-77285714D01*
X110354880Y-76952380D02*
X110402500Y-77000000D01*
X110354880Y-77047619D01*
X110307261Y-77000000D01*
X110354880Y-76952380D01*
X110354880Y-77047619D01*
X110021547Y-77285714D02*
X109640595Y-77285714D01*
X109878690Y-76952380D02*
X109878690Y-77809523D01*
X109831071Y-77904761D01*
X109735833Y-77952380D01*
X109640595Y-77952380D01*
X109307261Y-77952380D02*
X109307261Y-76952380D01*
X108878690Y-77952380D02*
X108878690Y-77428571D01*
X108926309Y-77333333D01*
X109021547Y-77285714D01*
X109164404Y-77285714D01*
X109259642Y-77333333D01*
X109307261Y-77380952D01*
X108402500Y-77952380D02*
X108402500Y-77285714D01*
X108402500Y-76952380D02*
X108450119Y-77000000D01*
X108402500Y-77047619D01*
X108354880Y-77000000D01*
X108402500Y-76952380D01*
X108402500Y-77047619D01*
X107497738Y-77285714D02*
X107497738Y-77952380D01*
X107926309Y-77285714D02*
X107926309Y-77809523D01*
X107878690Y-77904761D01*
X107783452Y-77952380D01*
X107640595Y-77952380D01*
X107545357Y-77904761D01*
X107497738Y-77857142D01*
X107021547Y-77952380D02*
X107021547Y-77285714D01*
X107021547Y-77380952D02*
X106973928Y-77333333D01*
X106878690Y-77285714D01*
X106735833Y-77285714D01*
X106640595Y-77333333D01*
X106592976Y-77428571D01*
X106592976Y-77952380D01*
X106592976Y-77428571D02*
X106545357Y-77333333D01*
X106450119Y-77285714D01*
X106307261Y-77285714D01*
X106212023Y-77333333D01*
X106164404Y-77428571D01*
X106164404Y-77952380D01*
X105354880Y-77428571D02*
X105212023Y-77476190D01*
X105164404Y-77523809D01*
X105116785Y-77619047D01*
X105116785Y-77761904D01*
X105164404Y-77857142D01*
X105212023Y-77904761D01*
X105307261Y-77952380D01*
X105688214Y-77952380D01*
X105688214Y-76952380D01*
X105354880Y-76952380D01*
X105259642Y-77000000D01*
X105212023Y-77047619D01*
X105164404Y-77142857D01*
X105164404Y-77238095D01*
X105212023Y-77333333D01*
X105259642Y-77380952D01*
X105354880Y-77428571D01*
X105688214Y-77428571D01*
X104259642Y-77952380D02*
X104259642Y-77428571D01*
X104307261Y-77333333D01*
X104402500Y-77285714D01*
X104592976Y-77285714D01*
X104688214Y-77333333D01*
X104259642Y-77904761D02*
X104354880Y-77952380D01*
X104592976Y-77952380D01*
X104688214Y-77904761D01*
X104735833Y-77809523D01*
X104735833Y-77714285D01*
X104688214Y-77619047D01*
X104592976Y-77571428D01*
X104354880Y-77571428D01*
X104259642Y-77523809D01*
X103926309Y-77285714D02*
X103545357Y-77285714D01*
X103783452Y-76952380D02*
X103783452Y-77809523D01*
X103735833Y-77904761D01*
X103640595Y-77952380D01*
X103545357Y-77952380D01*
X103354880Y-77285714D02*
X102973928Y-77285714D01*
X103212023Y-76952380D02*
X103212023Y-77809523D01*
X103164404Y-77904761D01*
X103069166Y-77952380D01*
X102973928Y-77952380D01*
X102259642Y-77904761D02*
X102354880Y-77952380D01*
X102545357Y-77952380D01*
X102640595Y-77904761D01*
X102688214Y-77809523D01*
X102688214Y-77428571D01*
X102640595Y-77333333D01*
X102545357Y-77285714D01*
X102354880Y-77285714D01*
X102259642Y-77333333D01*
X102212023Y-77428571D01*
X102212023Y-77523809D01*
X102688214Y-77619047D01*
X101783452Y-77952380D02*
X101783452Y-77285714D01*
X101783452Y-77476190D02*
X101735833Y-77380952D01*
X101688214Y-77333333D01*
X101592976Y-77285714D01*
X101497738Y-77285714D01*
X101259642Y-77285714D02*
X101021547Y-77952380D01*
X100783452Y-77285714D02*
X101021547Y-77952380D01*
X101116785Y-78190476D01*
X101164404Y-78238095D01*
X101259642Y-78285714D01*
X100402500Y-77428571D02*
X100069166Y-77428571D01*
X99926309Y-77952380D02*
X100402500Y-77952380D01*
X100402500Y-76952380D01*
X99926309Y-76952380D01*
X99497738Y-77952380D02*
X99497738Y-77285714D01*
X99497738Y-77380952D02*
X99450119Y-77333333D01*
X99354880Y-77285714D01*
X99212023Y-77285714D01*
X99116785Y-77333333D01*
X99069166Y-77428571D01*
X99069166Y-77952380D01*
X99069166Y-77428571D02*
X99021547Y-77333333D01*
X98926309Y-77285714D01*
X98783452Y-77285714D01*
X98688214Y-77333333D01*
X98640595Y-77428571D01*
X98640595Y-77952380D01*
X97735833Y-77285714D02*
X97735833Y-77952380D01*
X98164404Y-77285714D02*
X98164404Y-77809523D01*
X98116785Y-77904761D01*
X98021547Y-77952380D01*
X97878690Y-77952380D01*
X97783452Y-77904761D01*
X97735833Y-77857142D01*
X97116785Y-77952380D02*
X97212023Y-77904761D01*
X97259642Y-77809523D01*
X97259642Y-76952380D01*
X96307261Y-77952380D02*
X96307261Y-77428571D01*
X96354880Y-77333333D01*
X96450119Y-77285714D01*
X96640595Y-77285714D01*
X96735833Y-77333333D01*
X96307261Y-77904761D02*
X96402500Y-77952380D01*
X96640595Y-77952380D01*
X96735833Y-77904761D01*
X96783452Y-77809523D01*
X96783452Y-77714285D01*
X96735833Y-77619047D01*
X96640595Y-77571428D01*
X96402500Y-77571428D01*
X96307261Y-77523809D01*
X95973928Y-77285714D02*
X95592976Y-77285714D01*
X95831071Y-76952380D02*
X95831071Y-77809523D01*
X95783452Y-77904761D01*
X95688214Y-77952380D01*
X95592976Y-77952380D01*
X95116785Y-77952380D02*
X95212023Y-77904761D01*
X95259642Y-77857142D01*
X95307261Y-77761904D01*
X95307261Y-77476190D01*
X95259642Y-77380952D01*
X95212023Y-77333333D01*
X95116785Y-77285714D01*
X94973928Y-77285714D01*
X94878690Y-77333333D01*
X94831071Y-77380952D01*
X94783452Y-77476190D01*
X94783452Y-77761904D01*
X94831071Y-77857142D01*
X94878690Y-77904761D01*
X94973928Y-77952380D01*
X95116785Y-77952380D01*
X94354880Y-77952380D02*
X94354880Y-77285714D01*
X94354880Y-77476190D02*
X94307261Y-77380952D01*
X94259642Y-77333333D01*
X94164404Y-77285714D01*
X94069166Y-77285714D01*
X93116785Y-76952380D02*
X92783452Y-77952380D01*
X92450119Y-76952380D01*
X91735833Y-77904761D02*
X91831071Y-77952380D01*
X92021547Y-77952380D01*
X92116785Y-77904761D01*
X92164404Y-77809523D01*
X92164404Y-77428571D01*
X92116785Y-77333333D01*
X92021547Y-77285714D01*
X91831071Y-77285714D01*
X91735833Y-77333333D01*
X91688214Y-77428571D01*
X91688214Y-77523809D01*
X92164404Y-77619047D01*
X91259642Y-77952380D02*
X91259642Y-77285714D01*
X91259642Y-77476190D02*
X91212023Y-77380952D01*
X91164404Y-77333333D01*
X91069166Y-77285714D01*
X90973928Y-77285714D01*
X90688214Y-77904761D02*
X90592976Y-77952380D01*
X90402500Y-77952380D01*
X90307261Y-77904761D01*
X90259642Y-77809523D01*
X90259642Y-77761904D01*
X90307261Y-77666666D01*
X90402500Y-77619047D01*
X90545357Y-77619047D01*
X90640595Y-77571428D01*
X90688214Y-77476190D01*
X90688214Y-77428571D01*
X90640595Y-77333333D01*
X90545357Y-77285714D01*
X90402500Y-77285714D01*
X90307261Y-77333333D01*
X89831071Y-77952380D02*
X89831071Y-77285714D01*
X89831071Y-76952380D02*
X89878690Y-77000000D01*
X89831071Y-77047619D01*
X89783452Y-77000000D01*
X89831071Y-76952380D01*
X89831071Y-77047619D01*
X89212023Y-77952380D02*
X89307261Y-77904761D01*
X89354880Y-77857142D01*
X89402500Y-77761904D01*
X89402500Y-77476190D01*
X89354880Y-77380952D01*
X89307261Y-77333333D01*
X89212023Y-77285714D01*
X89069166Y-77285714D01*
X88973928Y-77333333D01*
X88926309Y-77380952D01*
X88878690Y-77476190D01*
X88878690Y-77761904D01*
X88926309Y-77857142D01*
X88973928Y-77904761D01*
X89069166Y-77952380D01*
X89212023Y-77952380D01*
X88450119Y-77285714D02*
X88450119Y-77952380D01*
X88450119Y-77380952D02*
X88402500Y-77333333D01*
X88307261Y-77285714D01*
X88164404Y-77285714D01*
X88069166Y-77333333D01*
X88021547Y-77428571D01*
X88021547Y-77952380D01*
X86592976Y-76952380D02*
X86497738Y-76952380D01*
X86402500Y-77000000D01*
X86354880Y-77047619D01*
X86307261Y-77142857D01*
X86259642Y-77333333D01*
X86259642Y-77571428D01*
X86307261Y-77761904D01*
X86354880Y-77857142D01*
X86402500Y-77904761D01*
X86497738Y-77952380D01*
X86592976Y-77952380D01*
X86688214Y-77904761D01*
X86735833Y-77857142D01*
X86783452Y-77761904D01*
X86831071Y-77571428D01*
X86831071Y-77333333D01*
X86783452Y-77142857D01*
X86735833Y-77047619D01*
X86688214Y-77000000D01*
X86592976Y-76952380D01*
X85831071Y-77857142D02*
X85783452Y-77904761D01*
X85831071Y-77952380D01*
X85878690Y-77904761D01*
X85831071Y-77857142D01*
X85831071Y-77952380D01*
X85164404Y-76952380D02*
X85069166Y-76952380D01*
X84973928Y-77000000D01*
X84926309Y-77047619D01*
X84878690Y-77142857D01*
X84831071Y-77333333D01*
X84831071Y-77571428D01*
X84878690Y-77761904D01*
X84926309Y-77857142D01*
X84973928Y-77904761D01*
X85069166Y-77952380D01*
X85164404Y-77952380D01*
X85259642Y-77904761D01*
X85307261Y-77857142D01*
X85354880Y-77761904D01*
X85402500Y-77571428D01*
X85402500Y-77333333D01*
X85354880Y-77142857D01*
X85307261Y-77047619D01*
X85259642Y-77000000D01*
X85164404Y-76952380D01*
D11*
G36*
X116499036Y-74898576D02*
G01*
X116423487Y-75299322D01*
X115865959Y-75529154D01*
X115531535Y-75301748D01*
X115437878Y-75238431D01*
X115353218Y-75181896D01*
X115281505Y-75134727D01*
X115226689Y-75099502D01*
X115192720Y-75078805D01*
X115183470Y-75074342D01*
X115166805Y-75085820D01*
X115131194Y-75117551D01*
X115080629Y-75165483D01*
X115019100Y-75225562D01*
X114950601Y-75293733D01*
X114879121Y-75365945D01*
X114808653Y-75438142D01*
X114743189Y-75506273D01*
X114686720Y-75566283D01*
X114643237Y-75614119D01*
X114616732Y-75645727D01*
X114610395Y-75656305D01*
X114619514Y-75675806D01*
X114645080Y-75718531D01*
X114684403Y-75780298D01*
X114734797Y-75856931D01*
X114793573Y-75944248D01*
X114827632Y-75994052D01*
X114889711Y-76084993D01*
X114944874Y-76167059D01*
X114990446Y-76236163D01*
X115023750Y-76288222D01*
X115042110Y-76319150D01*
X115044869Y-76325650D01*
X115038615Y-76344121D01*
X115021566Y-76387172D01*
X114996297Y-76448749D01*
X114965378Y-76522799D01*
X114931382Y-76603270D01*
X114896882Y-76684107D01*
X114864449Y-76759258D01*
X114836657Y-76822671D01*
X114816077Y-76868293D01*
X114805281Y-76890069D01*
X114804644Y-76890926D01*
X114787693Y-76895084D01*
X114742549Y-76904361D01*
X114673890Y-76917844D01*
X114586398Y-76934621D01*
X114484750Y-76953781D01*
X114425444Y-76964830D01*
X114316828Y-76985510D01*
X114218723Y-77005189D01*
X114136091Y-77022789D01*
X114073896Y-77037233D01*
X114037101Y-77047446D01*
X114029704Y-77050686D01*
X114022460Y-77072617D01*
X114016615Y-77122147D01*
X114012165Y-77193485D01*
X114009107Y-77280839D01*
X114007435Y-77378417D01*
X114007147Y-77480426D01*
X114008239Y-77581075D01*
X114010706Y-77674572D01*
X114014544Y-77755125D01*
X114019750Y-77816942D01*
X114026319Y-77854230D01*
X114030259Y-77861993D01*
X114053812Y-77871298D01*
X114103718Y-77884600D01*
X114173377Y-77900337D01*
X114256187Y-77916946D01*
X114285095Y-77922319D01*
X114424469Y-77947848D01*
X114534564Y-77968408D01*
X114619018Y-77984815D01*
X114681470Y-77997887D01*
X114725556Y-78008441D01*
X114754915Y-78017294D01*
X114773185Y-78025263D01*
X114784002Y-78033165D01*
X114785515Y-78034727D01*
X114800623Y-78059886D01*
X114823671Y-78108850D01*
X114852356Y-78175621D01*
X114884378Y-78254205D01*
X114917435Y-78338607D01*
X114949227Y-78422830D01*
X114977451Y-78500879D01*
X114999807Y-78566759D01*
X115013993Y-78614473D01*
X115017707Y-78638027D01*
X115017398Y-78638852D01*
X115004811Y-78658104D01*
X114976256Y-78700463D01*
X114934733Y-78761521D01*
X114883244Y-78836868D01*
X114824789Y-78922096D01*
X114808142Y-78946315D01*
X114748785Y-79034123D01*
X114696553Y-79114238D01*
X114654292Y-79182062D01*
X114624847Y-79232993D01*
X114611063Y-79262431D01*
X114610395Y-79266048D01*
X114621976Y-79285057D01*
X114653976Y-79322714D01*
X114702282Y-79374973D01*
X114762780Y-79437786D01*
X114831356Y-79507106D01*
X114903896Y-79578885D01*
X114976288Y-79649077D01*
X115044416Y-79713635D01*
X115104168Y-79768510D01*
X115151429Y-79809656D01*
X115182087Y-79833026D01*
X115190568Y-79836842D01*
X115210309Y-79827855D01*
X115250726Y-79803616D01*
X115305237Y-79768209D01*
X115347177Y-79739711D01*
X115423171Y-79687418D01*
X115513166Y-79625845D01*
X115603436Y-79564370D01*
X115651968Y-79531469D01*
X115816238Y-79420359D01*
X115954131Y-79494916D01*
X116016951Y-79527578D01*
X116070371Y-79552966D01*
X116106516Y-79567446D01*
X116115716Y-79569460D01*
X116126779Y-79554584D01*
X116148606Y-79512547D01*
X116179566Y-79447227D01*
X116218030Y-79362500D01*
X116262368Y-79262245D01*
X116310953Y-79150339D01*
X116362154Y-79030659D01*
X116414341Y-78907084D01*
X116465887Y-78783491D01*
X116515160Y-78663757D01*
X116560533Y-78551759D01*
X116600375Y-78451377D01*
X116633058Y-78366486D01*
X116656951Y-78300965D01*
X116670426Y-78258690D01*
X116672594Y-78244172D01*
X116655417Y-78225653D01*
X116617810Y-78195590D01*
X116567634Y-78160232D01*
X116563422Y-78157434D01*
X116433736Y-78053625D01*
X116329166Y-77932515D01*
X116250619Y-77797976D01*
X116199001Y-77653882D01*
X116175218Y-77504105D01*
X116180177Y-77352517D01*
X116214783Y-77202992D01*
X116279943Y-77059400D01*
X116299114Y-77027984D01*
X116398826Y-76901125D01*
X116516623Y-76799255D01*
X116648429Y-76722904D01*
X116790167Y-76672602D01*
X116937758Y-76648879D01*
X117087127Y-76652265D01*
X117234197Y-76683288D01*
X117374889Y-76742480D01*
X117505127Y-76830369D01*
X117545414Y-76866042D01*
X117647945Y-76977706D01*
X117722659Y-77095257D01*
X117773910Y-77227020D01*
X117802454Y-77357507D01*
X117809500Y-77504216D01*
X117786004Y-77651653D01*
X117734351Y-77794834D01*
X117656929Y-77928777D01*
X117556125Y-78048498D01*
X117434324Y-78149014D01*
X117418316Y-78159609D01*
X117367602Y-78194306D01*
X117329050Y-78224370D01*
X117310619Y-78243565D01*
X117310351Y-78244172D01*
X117314308Y-78264936D01*
X117329993Y-78312062D01*
X117355778Y-78381673D01*
X117390031Y-78469893D01*
X117431123Y-78572844D01*
X117477424Y-78686650D01*
X117527304Y-78807435D01*
X117579133Y-78931321D01*
X117631281Y-79054432D01*
X117682118Y-79172891D01*
X117730013Y-79282823D01*
X117773338Y-79380349D01*
X117810462Y-79461593D01*
X117839756Y-79522679D01*
X117859588Y-79559730D01*
X117867574Y-79569460D01*
X117891979Y-79561883D01*
X117937642Y-79541560D01*
X117996690Y-79512125D01*
X118029160Y-79494916D01*
X118167053Y-79420359D01*
X118331323Y-79531469D01*
X118415179Y-79588390D01*
X118506987Y-79651030D01*
X118593020Y-79710011D01*
X118636113Y-79739711D01*
X118696723Y-79780410D01*
X118748045Y-79812663D01*
X118783385Y-79832384D01*
X118794863Y-79836554D01*
X118811570Y-79825307D01*
X118848546Y-79793911D01*
X118902205Y-79745624D01*
X118968962Y-79683708D01*
X119045234Y-79611421D01*
X119093473Y-79565008D01*
X119177867Y-79482087D01*
X119250803Y-79407920D01*
X119309331Y-79345680D01*
X119350503Y-79298541D01*
X119371372Y-79269673D01*
X119373374Y-79263815D01*
X119364083Y-79241532D01*
X119338409Y-79196477D01*
X119299200Y-79133211D01*
X119249303Y-79056295D01*
X119191567Y-78970292D01*
X119175149Y-78946315D01*
X119115323Y-78859170D01*
X119061650Y-78780710D01*
X119017130Y-78715345D01*
X118984765Y-78667484D01*
X118967555Y-78641535D01*
X118965893Y-78638852D01*
X118968379Y-78618172D01*
X118981577Y-78572704D01*
X119003186Y-78508444D01*
X119030904Y-78431387D01*
X119062430Y-78347529D01*
X119095463Y-78262866D01*
X119127701Y-78183392D01*
X119156843Y-78115104D01*
X119180588Y-78063997D01*
X119196635Y-78036067D01*
X119197775Y-78034727D01*
X119207588Y-78026745D01*
X119224161Y-78018851D01*
X119251132Y-78010229D01*
X119292139Y-78000062D01*
X119350820Y-77987531D01*
X119430813Y-77971821D01*
X119535755Y-77952113D01*
X119669285Y-77927592D01*
X119698196Y-77922319D01*
X119783882Y-77905764D01*
X119858582Y-77889569D01*
X119915694Y-77875296D01*
X119948617Y-77864508D01*
X119953031Y-77861993D01*
X119960306Y-77839696D01*
X119966219Y-77789869D01*
X119970766Y-77718304D01*
X119973945Y-77630793D01*
X119975749Y-77533128D01*
X119976177Y-77431101D01*
X119975223Y-77330503D01*
X119972884Y-77237127D01*
X119969156Y-77156765D01*
X119964034Y-77095209D01*
X119957516Y-77058250D01*
X119953586Y-77050686D01*
X119931708Y-77043056D01*
X119881891Y-77030642D01*
X119809097Y-77014522D01*
X119718289Y-76995773D01*
X119614431Y-76975471D01*
X119557846Y-76964830D01*
X119450486Y-76944760D01*
X119354746Y-76926580D01*
X119275306Y-76911199D01*
X119216846Y-76899531D01*
X119184045Y-76892488D01*
X119178646Y-76890926D01*
X119169522Y-76873322D01*
X119150235Y-76830918D01*
X119123355Y-76769772D01*
X119091454Y-76695943D01*
X119057102Y-76615489D01*
X119022871Y-76534468D01*
X118991331Y-76458937D01*
X118965054Y-76394955D01*
X118946611Y-76348580D01*
X118938571Y-76325869D01*
X118938422Y-76324876D01*
X118947535Y-76306961D01*
X118973086Y-76265733D01*
X119012388Y-76205291D01*
X119062757Y-76129731D01*
X119121506Y-76043152D01*
X119155658Y-75993421D01*
X119217890Y-75902236D01*
X119273164Y-75819449D01*
X119318782Y-75749249D01*
X119352048Y-75695824D01*
X119370264Y-75663361D01*
X119372895Y-75656083D01*
X119361586Y-75639145D01*
X119330319Y-75602978D01*
X119283090Y-75551635D01*
X119223892Y-75489167D01*
X119156719Y-75419626D01*
X119085566Y-75347065D01*
X119014426Y-75275535D01*
X118947293Y-75209087D01*
X118888161Y-75151774D01*
X118841025Y-75107647D01*
X118809877Y-75080759D01*
X118799457Y-75074342D01*
X118782491Y-75083365D01*
X118741911Y-75108715D01*
X118681663Y-75147810D01*
X118605693Y-75198071D01*
X118517946Y-75256917D01*
X118451756Y-75301748D01*
X118117332Y-75529154D01*
X117838567Y-75414238D01*
X117559803Y-75299322D01*
X117484254Y-74898576D01*
X117408706Y-74497829D01*
X116574585Y-74497829D01*
X116499036Y-74898576D01*
X116499036Y-74898576D01*
G37*
X116499036Y-74898576D02*
X116423487Y-75299322D01*
X115865959Y-75529154D01*
X115531535Y-75301748D01*
X115437878Y-75238431D01*
X115353218Y-75181896D01*
X115281505Y-75134727D01*
X115226689Y-75099502D01*
X115192720Y-75078805D01*
X115183470Y-75074342D01*
X115166805Y-75085820D01*
X115131194Y-75117551D01*
X115080629Y-75165483D01*
X115019100Y-75225562D01*
X114950601Y-75293733D01*
X114879121Y-75365945D01*
X114808653Y-75438142D01*
X114743189Y-75506273D01*
X114686720Y-75566283D01*
X114643237Y-75614119D01*
X114616732Y-75645727D01*
X114610395Y-75656305D01*
X114619514Y-75675806D01*
X114645080Y-75718531D01*
X114684403Y-75780298D01*
X114734797Y-75856931D01*
X114793573Y-75944248D01*
X114827632Y-75994052D01*
X114889711Y-76084993D01*
X114944874Y-76167059D01*
X114990446Y-76236163D01*
X115023750Y-76288222D01*
X115042110Y-76319150D01*
X115044869Y-76325650D01*
X115038615Y-76344121D01*
X115021566Y-76387172D01*
X114996297Y-76448749D01*
X114965378Y-76522799D01*
X114931382Y-76603270D01*
X114896882Y-76684107D01*
X114864449Y-76759258D01*
X114836657Y-76822671D01*
X114816077Y-76868293D01*
X114805281Y-76890069D01*
X114804644Y-76890926D01*
X114787693Y-76895084D01*
X114742549Y-76904361D01*
X114673890Y-76917844D01*
X114586398Y-76934621D01*
X114484750Y-76953781D01*
X114425444Y-76964830D01*
X114316828Y-76985510D01*
X114218723Y-77005189D01*
X114136091Y-77022789D01*
X114073896Y-77037233D01*
X114037101Y-77047446D01*
X114029704Y-77050686D01*
X114022460Y-77072617D01*
X114016615Y-77122147D01*
X114012165Y-77193485D01*
X114009107Y-77280839D01*
X114007435Y-77378417D01*
X114007147Y-77480426D01*
X114008239Y-77581075D01*
X114010706Y-77674572D01*
X114014544Y-77755125D01*
X114019750Y-77816942D01*
X114026319Y-77854230D01*
X114030259Y-77861993D01*
X114053812Y-77871298D01*
X114103718Y-77884600D01*
X114173377Y-77900337D01*
X114256187Y-77916946D01*
X114285095Y-77922319D01*
X114424469Y-77947848D01*
X114534564Y-77968408D01*
X114619018Y-77984815D01*
X114681470Y-77997887D01*
X114725556Y-78008441D01*
X114754915Y-78017294D01*
X114773185Y-78025263D01*
X114784002Y-78033165D01*
X114785515Y-78034727D01*
X114800623Y-78059886D01*
X114823671Y-78108850D01*
X114852356Y-78175621D01*
X114884378Y-78254205D01*
X114917435Y-78338607D01*
X114949227Y-78422830D01*
X114977451Y-78500879D01*
X114999807Y-78566759D01*
X115013993Y-78614473D01*
X115017707Y-78638027D01*
X115017398Y-78638852D01*
X115004811Y-78658104D01*
X114976256Y-78700463D01*
X114934733Y-78761521D01*
X114883244Y-78836868D01*
X114824789Y-78922096D01*
X114808142Y-78946315D01*
X114748785Y-79034123D01*
X114696553Y-79114238D01*
X114654292Y-79182062D01*
X114624847Y-79232993D01*
X114611063Y-79262431D01*
X114610395Y-79266048D01*
X114621976Y-79285057D01*
X114653976Y-79322714D01*
X114702282Y-79374973D01*
X114762780Y-79437786D01*
X114831356Y-79507106D01*
X114903896Y-79578885D01*
X114976288Y-79649077D01*
X115044416Y-79713635D01*
X115104168Y-79768510D01*
X115151429Y-79809656D01*
X115182087Y-79833026D01*
X115190568Y-79836842D01*
X115210309Y-79827855D01*
X115250726Y-79803616D01*
X115305237Y-79768209D01*
X115347177Y-79739711D01*
X115423171Y-79687418D01*
X115513166Y-79625845D01*
X115603436Y-79564370D01*
X115651968Y-79531469D01*
X115816238Y-79420359D01*
X115954131Y-79494916D01*
X116016951Y-79527578D01*
X116070371Y-79552966D01*
X116106516Y-79567446D01*
X116115716Y-79569460D01*
X116126779Y-79554584D01*
X116148606Y-79512547D01*
X116179566Y-79447227D01*
X116218030Y-79362500D01*
X116262368Y-79262245D01*
X116310953Y-79150339D01*
X116362154Y-79030659D01*
X116414341Y-78907084D01*
X116465887Y-78783491D01*
X116515160Y-78663757D01*
X116560533Y-78551759D01*
X116600375Y-78451377D01*
X116633058Y-78366486D01*
X116656951Y-78300965D01*
X116670426Y-78258690D01*
X116672594Y-78244172D01*
X116655417Y-78225653D01*
X116617810Y-78195590D01*
X116567634Y-78160232D01*
X116563422Y-78157434D01*
X116433736Y-78053625D01*
X116329166Y-77932515D01*
X116250619Y-77797976D01*
X116199001Y-77653882D01*
X116175218Y-77504105D01*
X116180177Y-77352517D01*
X116214783Y-77202992D01*
X116279943Y-77059400D01*
X116299114Y-77027984D01*
X116398826Y-76901125D01*
X116516623Y-76799255D01*
X116648429Y-76722904D01*
X116790167Y-76672602D01*
X116937758Y-76648879D01*
X117087127Y-76652265D01*
X117234197Y-76683288D01*
X117374889Y-76742480D01*
X117505127Y-76830369D01*
X117545414Y-76866042D01*
X117647945Y-76977706D01*
X117722659Y-77095257D01*
X117773910Y-77227020D01*
X117802454Y-77357507D01*
X117809500Y-77504216D01*
X117786004Y-77651653D01*
X117734351Y-77794834D01*
X117656929Y-77928777D01*
X117556125Y-78048498D01*
X117434324Y-78149014D01*
X117418316Y-78159609D01*
X117367602Y-78194306D01*
X117329050Y-78224370D01*
X117310619Y-78243565D01*
X117310351Y-78244172D01*
X117314308Y-78264936D01*
X117329993Y-78312062D01*
X117355778Y-78381673D01*
X117390031Y-78469893D01*
X117431123Y-78572844D01*
X117477424Y-78686650D01*
X117527304Y-78807435D01*
X117579133Y-78931321D01*
X117631281Y-79054432D01*
X117682118Y-79172891D01*
X117730013Y-79282823D01*
X117773338Y-79380349D01*
X117810462Y-79461593D01*
X117839756Y-79522679D01*
X117859588Y-79559730D01*
X117867574Y-79569460D01*
X117891979Y-79561883D01*
X117937642Y-79541560D01*
X117996690Y-79512125D01*
X118029160Y-79494916D01*
X118167053Y-79420359D01*
X118331323Y-79531469D01*
X118415179Y-79588390D01*
X118506987Y-79651030D01*
X118593020Y-79710011D01*
X118636113Y-79739711D01*
X118696723Y-79780410D01*
X118748045Y-79812663D01*
X118783385Y-79832384D01*
X118794863Y-79836554D01*
X118811570Y-79825307D01*
X118848546Y-79793911D01*
X118902205Y-79745624D01*
X118968962Y-79683708D01*
X119045234Y-79611421D01*
X119093473Y-79565008D01*
X119177867Y-79482087D01*
X119250803Y-79407920D01*
X119309331Y-79345680D01*
X119350503Y-79298541D01*
X119371372Y-79269673D01*
X119373374Y-79263815D01*
X119364083Y-79241532D01*
X119338409Y-79196477D01*
X119299200Y-79133211D01*
X119249303Y-79056295D01*
X119191567Y-78970292D01*
X119175149Y-78946315D01*
X119115323Y-78859170D01*
X119061650Y-78780710D01*
X119017130Y-78715345D01*
X118984765Y-78667484D01*
X118967555Y-78641535D01*
X118965893Y-78638852D01*
X118968379Y-78618172D01*
X118981577Y-78572704D01*
X119003186Y-78508444D01*
X119030904Y-78431387D01*
X119062430Y-78347529D01*
X119095463Y-78262866D01*
X119127701Y-78183392D01*
X119156843Y-78115104D01*
X119180588Y-78063997D01*
X119196635Y-78036067D01*
X119197775Y-78034727D01*
X119207588Y-78026745D01*
X119224161Y-78018851D01*
X119251132Y-78010229D01*
X119292139Y-78000062D01*
X119350820Y-77987531D01*
X119430813Y-77971821D01*
X119535755Y-77952113D01*
X119669285Y-77927592D01*
X119698196Y-77922319D01*
X119783882Y-77905764D01*
X119858582Y-77889569D01*
X119915694Y-77875296D01*
X119948617Y-77864508D01*
X119953031Y-77861993D01*
X119960306Y-77839696D01*
X119966219Y-77789869D01*
X119970766Y-77718304D01*
X119973945Y-77630793D01*
X119975749Y-77533128D01*
X119976177Y-77431101D01*
X119975223Y-77330503D01*
X119972884Y-77237127D01*
X119969156Y-77156765D01*
X119964034Y-77095209D01*
X119957516Y-77058250D01*
X119953586Y-77050686D01*
X119931708Y-77043056D01*
X119881891Y-77030642D01*
X119809097Y-77014522D01*
X119718289Y-76995773D01*
X119614431Y-76975471D01*
X119557846Y-76964830D01*
X119450486Y-76944760D01*
X119354746Y-76926580D01*
X119275306Y-76911199D01*
X119216846Y-76899531D01*
X119184045Y-76892488D01*
X119178646Y-76890926D01*
X119169522Y-76873322D01*
X119150235Y-76830918D01*
X119123355Y-76769772D01*
X119091454Y-76695943D01*
X119057102Y-76615489D01*
X119022871Y-76534468D01*
X118991331Y-76458937D01*
X118965054Y-76394955D01*
X118946611Y-76348580D01*
X118938571Y-76325869D01*
X118938422Y-76324876D01*
X118947535Y-76306961D01*
X118973086Y-76265733D01*
X119012388Y-76205291D01*
X119062757Y-76129731D01*
X119121506Y-76043152D01*
X119155658Y-75993421D01*
X119217890Y-75902236D01*
X119273164Y-75819449D01*
X119318782Y-75749249D01*
X119352048Y-75695824D01*
X119370264Y-75663361D01*
X119372895Y-75656083D01*
X119361586Y-75639145D01*
X119330319Y-75602978D01*
X119283090Y-75551635D01*
X119223892Y-75489167D01*
X119156719Y-75419626D01*
X119085566Y-75347065D01*
X119014426Y-75275535D01*
X118947293Y-75209087D01*
X118888161Y-75151774D01*
X118841025Y-75107647D01*
X118809877Y-75080759D01*
X118799457Y-75074342D01*
X118782491Y-75083365D01*
X118741911Y-75108715D01*
X118681663Y-75147810D01*
X118605693Y-75198071D01*
X118517946Y-75256917D01*
X118451756Y-75301748D01*
X118117332Y-75529154D01*
X117838567Y-75414238D01*
X117559803Y-75299322D01*
X117484254Y-74898576D01*
X117408706Y-74497829D01*
X116574585Y-74497829D01*
X116499036Y-74898576D01*
G36*
X114608612Y-80437645D02*
G01*
X114551135Y-80455206D01*
X114514128Y-80477395D01*
X114502073Y-80494942D01*
X114505391Y-80515742D01*
X114526921Y-80548419D01*
X114545126Y-80571562D01*
X114582656Y-80613402D01*
X114610852Y-80631005D01*
X114634889Y-80629856D01*
X114706192Y-80611710D01*
X114758558Y-80612534D01*
X114801082Y-80633098D01*
X114815358Y-80645134D01*
X114861053Y-80687483D01*
X114861053Y-81240526D01*
X115044869Y-81240526D01*
X115044869Y-80438421D01*
X114952961Y-80438421D01*
X114897781Y-80440603D01*
X114869312Y-80448351D01*
X114861057Y-80463468D01*
X114861053Y-80463916D01*
X114857155Y-80479749D01*
X114839526Y-80477684D01*
X114815099Y-80466261D01*
X114764650Y-80445005D01*
X114723684Y-80432216D01*
X114670972Y-80428938D01*
X114608612Y-80437645D01*
X114608612Y-80437645D01*
G37*
X114608612Y-80437645D02*
X114551135Y-80455206D01*
X114514128Y-80477395D01*
X114502073Y-80494942D01*
X114505391Y-80515742D01*
X114526921Y-80548419D01*
X114545126Y-80571562D01*
X114582656Y-80613402D01*
X114610852Y-80631005D01*
X114634889Y-80629856D01*
X114706192Y-80611710D01*
X114758558Y-80612534D01*
X114801082Y-80633098D01*
X114815358Y-80645134D01*
X114861053Y-80687483D01*
X114861053Y-81240526D01*
X115044869Y-81240526D01*
X115044869Y-80438421D01*
X114952961Y-80438421D01*
X114897781Y-80440603D01*
X114869312Y-80448351D01*
X114861057Y-80463468D01*
X114861053Y-80463916D01*
X114857155Y-80479749D01*
X114839526Y-80477684D01*
X114815099Y-80466261D01*
X114764650Y-80445005D01*
X114723684Y-80432216D01*
X114670972Y-80428938D01*
X114608612Y-80437645D01*
G36*
X118002043Y-80452226D02*
G01*
X117960454Y-80472090D01*
X117920175Y-80500784D01*
X117889490Y-80533809D01*
X117867139Y-80575931D01*
X117851864Y-80631915D01*
X117842408Y-80706528D01*
X117837513Y-80804535D01*
X117835919Y-80930702D01*
X117835894Y-80943914D01*
X117835527Y-81240526D01*
X118019343Y-81240526D01*
X118019343Y-80967081D01*
X118019473Y-80865777D01*
X118020379Y-80792353D01*
X118022827Y-80741271D01*
X118027586Y-80706990D01*
X118035426Y-80683971D01*
X118047115Y-80666673D01*
X118063398Y-80649581D01*
X118120366Y-80612857D01*
X118182555Y-80606042D01*
X118241801Y-80629261D01*
X118262405Y-80646543D01*
X118277530Y-80662791D01*
X118288390Y-80680191D01*
X118295690Y-80704212D01*
X118300137Y-80740322D01*
X118302436Y-80793988D01*
X118303296Y-80870680D01*
X118303422Y-80964043D01*
X118303422Y-81240526D01*
X118487237Y-81240526D01*
X118487237Y-80438421D01*
X118395329Y-80438421D01*
X118340149Y-80440603D01*
X118311680Y-80448351D01*
X118303425Y-80463468D01*
X118303422Y-80463916D01*
X118299592Y-80478720D01*
X118282699Y-80477040D01*
X118249112Y-80460773D01*
X118172937Y-80436840D01*
X118085800Y-80434178D01*
X118002043Y-80452226D01*
X118002043Y-80452226D01*
G37*
X118002043Y-80452226D02*
X117960454Y-80472090D01*
X117920175Y-80500784D01*
X117889490Y-80533809D01*
X117867139Y-80575931D01*
X117851864Y-80631915D01*
X117842408Y-80706528D01*
X117837513Y-80804535D01*
X117835919Y-80930702D01*
X117835894Y-80943914D01*
X117835527Y-81240526D01*
X118019343Y-81240526D01*
X118019343Y-80967081D01*
X118019473Y-80865777D01*
X118020379Y-80792353D01*
X118022827Y-80741271D01*
X118027586Y-80706990D01*
X118035426Y-80683971D01*
X118047115Y-80666673D01*
X118063398Y-80649581D01*
X118120366Y-80612857D01*
X118182555Y-80606042D01*
X118241801Y-80629261D01*
X118262405Y-80646543D01*
X118277530Y-80662791D01*
X118288390Y-80680191D01*
X118295690Y-80704212D01*
X118300137Y-80740322D01*
X118302436Y-80793988D01*
X118303296Y-80870680D01*
X118303422Y-80964043D01*
X118303422Y-81240526D01*
X118487237Y-81240526D01*
X118487237Y-80438421D01*
X118395329Y-80438421D01*
X118340149Y-80440603D01*
X118311680Y-80448351D01*
X118303425Y-80463468D01*
X118303422Y-80463916D01*
X118299592Y-80478720D01*
X118282699Y-80477040D01*
X118249112Y-80460773D01*
X118172937Y-80436840D01*
X118085800Y-80434178D01*
X118002043Y-80452226D01*
G36*
X113441216Y-80435554D02*
G01*
X113398426Y-80445949D01*
X113316391Y-80484013D01*
X113246243Y-80542149D01*
X113197695Y-80611852D01*
X113191025Y-80627502D01*
X113181876Y-80668496D01*
X113175471Y-80729138D01*
X113173290Y-80790430D01*
X113173290Y-80906316D01*
X113415593Y-80906316D01*
X113515529Y-80906693D01*
X113585931Y-80908987D01*
X113630687Y-80914938D01*
X113653685Y-80926285D01*
X113658811Y-80944771D01*
X113649952Y-80972136D01*
X113634083Y-81004155D01*
X113589816Y-81057592D01*
X113528301Y-81084215D01*
X113453115Y-81083347D01*
X113367947Y-81054371D01*
X113294341Y-81018611D01*
X113233266Y-81066904D01*
X113172190Y-81115197D01*
X113229649Y-81168285D01*
X113306359Y-81218445D01*
X113400698Y-81248688D01*
X113502173Y-81257151D01*
X113600289Y-81241974D01*
X113616119Y-81236824D01*
X113702353Y-81191791D01*
X113766499Y-81124652D01*
X113809909Y-81033405D01*
X113833936Y-80916044D01*
X113834216Y-80913529D01*
X113836367Y-80785627D01*
X113827671Y-80739997D01*
X113657895Y-80739997D01*
X113642303Y-80747013D01*
X113599971Y-80752388D01*
X113537566Y-80755457D01*
X113498019Y-80755921D01*
X113424272Y-80755630D01*
X113378160Y-80753783D01*
X113353900Y-80748912D01*
X113345706Y-80739555D01*
X113347794Y-80724245D01*
X113349545Y-80718322D01*
X113379440Y-80662668D01*
X113426458Y-80617815D01*
X113467951Y-80598105D01*
X113523074Y-80599295D01*
X113578932Y-80623875D01*
X113625788Y-80664570D01*
X113653906Y-80714108D01*
X113657895Y-80739997D01*
X113827671Y-80739997D01*
X113814926Y-80673133D01*
X113772389Y-80578727D01*
X113711253Y-80505088D01*
X113634015Y-80454893D01*
X113543170Y-80430822D01*
X113441216Y-80435554D01*
X113441216Y-80435554D01*
G37*
X113441216Y-80435554D02*
X113398426Y-80445949D01*
X113316391Y-80484013D01*
X113246243Y-80542149D01*
X113197695Y-80611852D01*
X113191025Y-80627502D01*
X113181876Y-80668496D01*
X113175471Y-80729138D01*
X113173290Y-80790430D01*
X113173290Y-80906316D01*
X113415593Y-80906316D01*
X113515529Y-80906693D01*
X113585931Y-80908987D01*
X113630687Y-80914938D01*
X113653685Y-80926285D01*
X113658811Y-80944771D01*
X113649952Y-80972136D01*
X113634083Y-81004155D01*
X113589816Y-81057592D01*
X113528301Y-81084215D01*
X113453115Y-81083347D01*
X113367947Y-81054371D01*
X113294341Y-81018611D01*
X113233266Y-81066904D01*
X113172190Y-81115197D01*
X113229649Y-81168285D01*
X113306359Y-81218445D01*
X113400698Y-81248688D01*
X113502173Y-81257151D01*
X113600289Y-81241974D01*
X113616119Y-81236824D01*
X113702353Y-81191791D01*
X113766499Y-81124652D01*
X113809909Y-81033405D01*
X113833936Y-80916044D01*
X113834216Y-80913529D01*
X113836367Y-80785627D01*
X113827671Y-80739997D01*
X113657895Y-80739997D01*
X113642303Y-80747013D01*
X113599971Y-80752388D01*
X113537566Y-80755457D01*
X113498019Y-80755921D01*
X113424272Y-80755630D01*
X113378160Y-80753783D01*
X113353900Y-80748912D01*
X113345706Y-80739555D01*
X113347794Y-80724245D01*
X113349545Y-80718322D01*
X113379440Y-80662668D01*
X113426458Y-80617815D01*
X113467951Y-80598105D01*
X113523074Y-80599295D01*
X113578932Y-80623875D01*
X113625788Y-80664570D01*
X113653906Y-80714108D01*
X113657895Y-80739997D01*
X113827671Y-80739997D01*
X113814926Y-80673133D01*
X113772389Y-80578727D01*
X113711253Y-80505088D01*
X113634015Y-80454893D01*
X113543170Y-80430822D01*
X113441216Y-80435554D01*
G36*
X114053424Y-80445419D02*
G01*
X113956605Y-80486549D01*
X113926110Y-80506571D01*
X113887135Y-80537340D01*
X113862669Y-80561533D01*
X113858422Y-80569413D01*
X113870416Y-80586899D01*
X113901113Y-80616570D01*
X113925688Y-80637279D01*
X113992954Y-80691336D01*
X114046070Y-80646642D01*
X114087116Y-80617789D01*
X114127137Y-80607829D01*
X114172941Y-80610261D01*
X114245676Y-80628345D01*
X114295744Y-80665881D01*
X114326171Y-80726562D01*
X114339983Y-80814081D01*
X114339987Y-80814136D01*
X114338792Y-80911958D01*
X114320228Y-80983730D01*
X114283196Y-81032595D01*
X114257950Y-81049143D01*
X114190903Y-81069749D01*
X114119291Y-81069762D01*
X114056985Y-81049768D01*
X114042237Y-81040000D01*
X114005250Y-81015047D01*
X113976332Y-81010958D01*
X113945144Y-81029530D01*
X113910664Y-81062887D01*
X113856088Y-81119196D01*
X113916682Y-81169142D01*
X114010302Y-81225513D01*
X114115875Y-81253293D01*
X114226202Y-81251282D01*
X114298657Y-81232862D01*
X114383344Y-81187310D01*
X114451073Y-81115650D01*
X114481843Y-81065066D01*
X114506764Y-80992488D01*
X114519234Y-80900569D01*
X114519330Y-80800948D01*
X114507130Y-80705267D01*
X114482710Y-80625169D01*
X114478864Y-80616956D01*
X114421907Y-80536413D01*
X114344791Y-80477771D01*
X114253610Y-80442247D01*
X114154457Y-80431057D01*
X114053424Y-80445419D01*
X114053424Y-80445419D01*
G37*
X114053424Y-80445419D02*
X113956605Y-80486549D01*
X113926110Y-80506571D01*
X113887135Y-80537340D01*
X113862669Y-80561533D01*
X113858422Y-80569413D01*
X113870416Y-80586899D01*
X113901113Y-80616570D01*
X113925688Y-80637279D01*
X113992954Y-80691336D01*
X114046070Y-80646642D01*
X114087116Y-80617789D01*
X114127137Y-80607829D01*
X114172941Y-80610261D01*
X114245676Y-80628345D01*
X114295744Y-80665881D01*
X114326171Y-80726562D01*
X114339983Y-80814081D01*
X114339987Y-80814136D01*
X114338792Y-80911958D01*
X114320228Y-80983730D01*
X114283196Y-81032595D01*
X114257950Y-81049143D01*
X114190903Y-81069749D01*
X114119291Y-81069762D01*
X114056985Y-81049768D01*
X114042237Y-81040000D01*
X114005250Y-81015047D01*
X113976332Y-81010958D01*
X113945144Y-81029530D01*
X113910664Y-81062887D01*
X113856088Y-81119196D01*
X113916682Y-81169142D01*
X114010302Y-81225513D01*
X114115875Y-81253293D01*
X114226202Y-81251282D01*
X114298657Y-81232862D01*
X114383344Y-81187310D01*
X114451073Y-81115650D01*
X114481843Y-81065066D01*
X114506764Y-80992488D01*
X114519234Y-80900569D01*
X114519330Y-80800948D01*
X114507130Y-80705267D01*
X114482710Y-80625169D01*
X114478864Y-80616956D01*
X114421907Y-80536413D01*
X114344791Y-80477771D01*
X114253610Y-80442247D01*
X114154457Y-80431057D01*
X114053424Y-80445419D01*
G36*
X115679869Y-80698533D02*
G01*
X115678290Y-80821089D01*
X115672519Y-80914179D01*
X115661009Y-80981651D01*
X115642210Y-81027355D01*
X115614574Y-81055139D01*
X115576552Y-81068854D01*
X115529474Y-81072358D01*
X115480168Y-81068432D01*
X115442717Y-81054089D01*
X115415572Y-81025478D01*
X115397185Y-80978751D01*
X115386007Y-80910058D01*
X115380489Y-80815550D01*
X115379079Y-80698533D01*
X115379079Y-80438421D01*
X115195264Y-80438421D01*
X115195264Y-81240526D01*
X115287172Y-81240526D01*
X115342578Y-81238281D01*
X115371109Y-81230396D01*
X115379079Y-81215428D01*
X115383880Y-81202097D01*
X115402986Y-81204917D01*
X115441496Y-81223783D01*
X115529761Y-81252887D01*
X115623377Y-81250825D01*
X115713079Y-81219221D01*
X115755796Y-81194257D01*
X115788379Y-81167226D01*
X115812183Y-81133405D01*
X115828561Y-81088068D01*
X115838869Y-81026489D01*
X115844459Y-80943943D01*
X115846688Y-80835705D01*
X115846974Y-80752004D01*
X115846974Y-80438421D01*
X115679869Y-80438421D01*
X115679869Y-80698533D01*
X115679869Y-80698533D01*
G37*
X115679869Y-80698533D02*
X115678290Y-80821089D01*
X115672519Y-80914179D01*
X115661009Y-80981651D01*
X115642210Y-81027355D01*
X115614574Y-81055139D01*
X115576552Y-81068854D01*
X115529474Y-81072358D01*
X115480168Y-81068432D01*
X115442717Y-81054089D01*
X115415572Y-81025478D01*
X115397185Y-80978751D01*
X115386007Y-80910058D01*
X115380489Y-80815550D01*
X115379079Y-80698533D01*
X115379079Y-80438421D01*
X115195264Y-80438421D01*
X115195264Y-81240526D01*
X115287172Y-81240526D01*
X115342578Y-81238281D01*
X115371109Y-81230396D01*
X115379079Y-81215428D01*
X115383880Y-81202097D01*
X115402986Y-81204917D01*
X115441496Y-81223783D01*
X115529761Y-81252887D01*
X115623377Y-81250825D01*
X115713079Y-81219221D01*
X115755796Y-81194257D01*
X115788379Y-81167226D01*
X115812183Y-81133405D01*
X115828561Y-81088068D01*
X115838869Y-81026489D01*
X115844459Y-80943943D01*
X115846688Y-80835705D01*
X115846974Y-80752004D01*
X115846974Y-80438421D01*
X115679869Y-80438421D01*
X115679869Y-80698533D01*
G36*
X116188331Y-80448310D02*
G01*
X116103808Y-80494340D01*
X116037679Y-80567006D01*
X116006522Y-80626106D01*
X115993145Y-80678305D01*
X115984478Y-80752719D01*
X115980763Y-80838442D01*
X115982246Y-80924569D01*
X115989169Y-81000193D01*
X115997255Y-81040584D01*
X116024535Y-81095840D01*
X116071780Y-81154530D01*
X116128718Y-81205852D01*
X116185076Y-81239005D01*
X116186450Y-81239531D01*
X116256384Y-81254018D01*
X116339263Y-81254377D01*
X116418023Y-81241188D01*
X116448434Y-81230617D01*
X116526761Y-81186201D01*
X116582857Y-81128007D01*
X116619714Y-81050965D01*
X116640320Y-80950001D01*
X116644982Y-80897116D01*
X116644387Y-80830663D01*
X116465264Y-80830663D01*
X116459230Y-80927630D01*
X116441862Y-81001523D01*
X116414260Y-81048736D01*
X116394596Y-81062237D01*
X116344213Y-81071651D01*
X116284327Y-81068864D01*
X116232551Y-81055316D01*
X116218973Y-81047862D01*
X116183151Y-81004451D01*
X116159507Y-80938014D01*
X116149442Y-80857161D01*
X116154358Y-80770502D01*
X116165345Y-80718349D01*
X116196891Y-80657951D01*
X116246689Y-80620197D01*
X116306663Y-80607143D01*
X116368736Y-80620849D01*
X116416418Y-80654372D01*
X116441475Y-80682031D01*
X116456100Y-80709294D01*
X116463071Y-80746190D01*
X116465167Y-80802750D01*
X116465264Y-80830663D01*
X116644387Y-80830663D01*
X116643718Y-80755994D01*
X116620735Y-80640271D01*
X116576028Y-80549941D01*
X116509595Y-80485000D01*
X116421435Y-80445445D01*
X116402505Y-80440858D01*
X116288734Y-80430090D01*
X116188331Y-80448310D01*
X116188331Y-80448310D01*
G37*
X116188331Y-80448310D02*
X116103808Y-80494340D01*
X116037679Y-80567006D01*
X116006522Y-80626106D01*
X115993145Y-80678305D01*
X115984478Y-80752719D01*
X115980763Y-80838442D01*
X115982246Y-80924569D01*
X115989169Y-81000193D01*
X115997255Y-81040584D01*
X116024535Y-81095840D01*
X116071780Y-81154530D01*
X116128718Y-81205852D01*
X116185076Y-81239005D01*
X116186450Y-81239531D01*
X116256384Y-81254018D01*
X116339263Y-81254377D01*
X116418023Y-81241188D01*
X116448434Y-81230617D01*
X116526761Y-81186201D01*
X116582857Y-81128007D01*
X116619714Y-81050965D01*
X116640320Y-80950001D01*
X116644982Y-80897116D01*
X116644387Y-80830663D01*
X116465264Y-80830663D01*
X116459230Y-80927630D01*
X116441862Y-81001523D01*
X116414260Y-81048736D01*
X116394596Y-81062237D01*
X116344213Y-81071651D01*
X116284327Y-81068864D01*
X116232551Y-81055316D01*
X116218973Y-81047862D01*
X116183151Y-81004451D01*
X116159507Y-80938014D01*
X116149442Y-80857161D01*
X116154358Y-80770502D01*
X116165345Y-80718349D01*
X116196891Y-80657951D01*
X116246689Y-80620197D01*
X116306663Y-80607143D01*
X116368736Y-80620849D01*
X116416418Y-80654372D01*
X116441475Y-80682031D01*
X116456100Y-80709294D01*
X116463071Y-80746190D01*
X116465167Y-80802750D01*
X116465264Y-80830663D01*
X116644387Y-80830663D01*
X116643718Y-80755994D01*
X116620735Y-80640271D01*
X116576028Y-80549941D01*
X116509595Y-80485000D01*
X116421435Y-80445445D01*
X116402505Y-80440858D01*
X116288734Y-80430090D01*
X116188331Y-80448310D01*
G36*
X116981372Y-80435547D02*
G01*
X116918092Y-80447548D01*
X116852443Y-80472648D01*
X116845428Y-80475848D01*
X116795644Y-80502026D01*
X116761166Y-80526353D01*
X116750022Y-80541937D01*
X116760634Y-80567353D01*
X116786412Y-80604853D01*
X116797854Y-80618852D01*
X116845008Y-80673954D01*
X116905799Y-80638086D01*
X116963653Y-80614192D01*
X117030500Y-80601420D01*
X117094606Y-80600613D01*
X117144236Y-80612615D01*
X117156146Y-80620105D01*
X117178828Y-80654450D01*
X117181584Y-80694013D01*
X117164612Y-80724920D01*
X117154573Y-80730913D01*
X117124490Y-80738357D01*
X117071611Y-80747106D01*
X117006425Y-80755467D01*
X116994400Y-80756778D01*
X116889703Y-80774888D01*
X116813768Y-80805651D01*
X116763408Y-80851907D01*
X116735436Y-80916497D01*
X116726722Y-80995387D01*
X116738760Y-81085065D01*
X116777849Y-81155486D01*
X116844145Y-81206777D01*
X116937806Y-81239067D01*
X117041777Y-81251807D01*
X117126562Y-81251654D01*
X117195335Y-81240083D01*
X117242303Y-81224109D01*
X117301650Y-81196275D01*
X117356494Y-81163973D01*
X117375987Y-81149755D01*
X117426119Y-81108835D01*
X117305197Y-80986477D01*
X117236457Y-81031967D01*
X117167512Y-81066133D01*
X117093889Y-81084004D01*
X117023117Y-81085889D01*
X116962726Y-81072101D01*
X116920243Y-81042949D01*
X116906526Y-81018352D01*
X116908583Y-80978904D01*
X116942670Y-80948737D01*
X117008692Y-80927906D01*
X117081026Y-80918279D01*
X117192348Y-80899910D01*
X117275048Y-80865254D01*
X117330235Y-80813297D01*
X117359012Y-80743023D01*
X117362999Y-80659707D01*
X117343307Y-80572681D01*
X117298411Y-80506902D01*
X117227909Y-80462068D01*
X117131399Y-80437879D01*
X117059900Y-80433137D01*
X116981372Y-80435547D01*
X116981372Y-80435547D01*
G37*
X116981372Y-80435547D02*
X116918092Y-80447548D01*
X116852443Y-80472648D01*
X116845428Y-80475848D01*
X116795644Y-80502026D01*
X116761166Y-80526353D01*
X116750022Y-80541937D01*
X116760634Y-80567353D01*
X116786412Y-80604853D01*
X116797854Y-80618852D01*
X116845008Y-80673954D01*
X116905799Y-80638086D01*
X116963653Y-80614192D01*
X117030500Y-80601420D01*
X117094606Y-80600613D01*
X117144236Y-80612615D01*
X117156146Y-80620105D01*
X117178828Y-80654450D01*
X117181584Y-80694013D01*
X117164612Y-80724920D01*
X117154573Y-80730913D01*
X117124490Y-80738357D01*
X117071611Y-80747106D01*
X117006425Y-80755467D01*
X116994400Y-80756778D01*
X116889703Y-80774888D01*
X116813768Y-80805651D01*
X116763408Y-80851907D01*
X116735436Y-80916497D01*
X116726722Y-80995387D01*
X116738760Y-81085065D01*
X116777849Y-81155486D01*
X116844145Y-81206777D01*
X116937806Y-81239067D01*
X117041777Y-81251807D01*
X117126562Y-81251654D01*
X117195335Y-81240083D01*
X117242303Y-81224109D01*
X117301650Y-81196275D01*
X117356494Y-81163973D01*
X117375987Y-81149755D01*
X117426119Y-81108835D01*
X117305197Y-80986477D01*
X117236457Y-81031967D01*
X117167512Y-81066133D01*
X117093889Y-81084004D01*
X117023117Y-81085889D01*
X116962726Y-81072101D01*
X116920243Y-81042949D01*
X116906526Y-81018352D01*
X116908583Y-80978904D01*
X116942670Y-80948737D01*
X117008692Y-80927906D01*
X117081026Y-80918279D01*
X117192348Y-80899910D01*
X117275048Y-80865254D01*
X117330235Y-80813297D01*
X117359012Y-80743023D01*
X117362999Y-80659707D01*
X117343307Y-80572681D01*
X117298411Y-80506902D01*
X117227909Y-80462068D01*
X117131399Y-80437879D01*
X117059900Y-80433137D01*
X116981372Y-80435547D01*
G36*
X118802982Y-80457027D02*
G01*
X118786330Y-80464866D01*
X118728695Y-80507086D01*
X118674195Y-80568700D01*
X118633501Y-80636543D01*
X118621926Y-80667734D01*
X118611366Y-80723449D01*
X118605069Y-80790781D01*
X118604304Y-80818585D01*
X118604211Y-80906316D01*
X119109150Y-80906316D01*
X119098387Y-80952270D01*
X119071967Y-81006620D01*
X119025778Y-81053591D01*
X118970828Y-81083848D01*
X118935811Y-81090131D01*
X118888323Y-81082506D01*
X118831665Y-81063383D01*
X118812418Y-81054584D01*
X118741241Y-81019036D01*
X118680498Y-81065367D01*
X118645448Y-81096703D01*
X118626798Y-81122567D01*
X118625853Y-81130158D01*
X118642515Y-81148556D01*
X118679030Y-81176515D01*
X118712172Y-81198327D01*
X118801607Y-81237537D01*
X118901871Y-81255285D01*
X119001246Y-81250670D01*
X119080461Y-81226551D01*
X119162120Y-81174884D01*
X119220151Y-81106856D01*
X119256454Y-81018843D01*
X119272928Y-80907216D01*
X119274389Y-80856138D01*
X119268543Y-80739091D01*
X119267825Y-80735686D01*
X119100511Y-80735686D01*
X119095903Y-80746662D01*
X119076964Y-80752715D01*
X119037902Y-80755310D01*
X118972923Y-80755910D01*
X118947903Y-80755921D01*
X118871779Y-80755014D01*
X118823504Y-80751720D01*
X118797540Y-80745181D01*
X118788352Y-80734537D01*
X118788027Y-80731119D01*
X118798513Y-80703956D01*
X118824758Y-80665903D01*
X118836041Y-80652579D01*
X118877928Y-80614896D01*
X118921591Y-80600080D01*
X118945115Y-80598842D01*
X119008757Y-80614329D01*
X119062127Y-80655930D01*
X119095981Y-80716353D01*
X119096581Y-80718322D01*
X119100511Y-80735686D01*
X119267825Y-80735686D01*
X119249101Y-80646928D01*
X119214078Y-80573190D01*
X119171244Y-80520848D01*
X119092052Y-80464092D01*
X118998960Y-80433762D01*
X118899945Y-80431021D01*
X118802982Y-80457027D01*
X118802982Y-80457027D01*
G37*
X118802982Y-80457027D02*
X118786330Y-80464866D01*
X118728695Y-80507086D01*
X118674195Y-80568700D01*
X118633501Y-80636543D01*
X118621926Y-80667734D01*
X118611366Y-80723449D01*
X118605069Y-80790781D01*
X118604304Y-80818585D01*
X118604211Y-80906316D01*
X119109150Y-80906316D01*
X119098387Y-80952270D01*
X119071967Y-81006620D01*
X119025778Y-81053591D01*
X118970828Y-81083848D01*
X118935811Y-81090131D01*
X118888323Y-81082506D01*
X118831665Y-81063383D01*
X118812418Y-81054584D01*
X118741241Y-81019036D01*
X118680498Y-81065367D01*
X118645448Y-81096703D01*
X118626798Y-81122567D01*
X118625853Y-81130158D01*
X118642515Y-81148556D01*
X118679030Y-81176515D01*
X118712172Y-81198327D01*
X118801607Y-81237537D01*
X118901871Y-81255285D01*
X119001246Y-81250670D01*
X119080461Y-81226551D01*
X119162120Y-81174884D01*
X119220151Y-81106856D01*
X119256454Y-81018843D01*
X119272928Y-80907216D01*
X119274389Y-80856138D01*
X119268543Y-80739091D01*
X119267825Y-80735686D01*
X119100511Y-80735686D01*
X119095903Y-80746662D01*
X119076964Y-80752715D01*
X119037902Y-80755310D01*
X118972923Y-80755910D01*
X118947903Y-80755921D01*
X118871779Y-80755014D01*
X118823504Y-80751720D01*
X118797540Y-80745181D01*
X118788352Y-80734537D01*
X118788027Y-80731119D01*
X118798513Y-80703956D01*
X118824758Y-80665903D01*
X118836041Y-80652579D01*
X118877928Y-80614896D01*
X118921591Y-80600080D01*
X118945115Y-80598842D01*
X119008757Y-80614329D01*
X119062127Y-80655930D01*
X119095981Y-80716353D01*
X119096581Y-80718322D01*
X119100511Y-80735686D01*
X119267825Y-80735686D01*
X119249101Y-80646928D01*
X119214078Y-80573190D01*
X119171244Y-80520848D01*
X119092052Y-80464092D01*
X118998960Y-80433762D01*
X118899945Y-80431021D01*
X118802982Y-80457027D01*
G36*
X120373216Y-80447104D02*
G01*
X120285795Y-80485754D01*
X120219430Y-80550290D01*
X120174024Y-80640812D01*
X120149482Y-80757418D01*
X120147723Y-80775624D01*
X120146344Y-80903984D01*
X120164216Y-81016496D01*
X120200250Y-81107688D01*
X120219545Y-81137022D01*
X120286755Y-81199106D01*
X120372350Y-81239316D01*
X120468110Y-81256003D01*
X120565813Y-81247517D01*
X120640083Y-81221380D01*
X120703953Y-81177335D01*
X120756154Y-81119587D01*
X120757057Y-81118236D01*
X120778256Y-81082593D01*
X120792033Y-81046752D01*
X120800376Y-81001519D01*
X120805273Y-80937701D01*
X120807431Y-80885368D01*
X120808329Y-80837910D01*
X120641257Y-80837910D01*
X120639624Y-80885154D01*
X120633696Y-80948046D01*
X120623239Y-80988407D01*
X120604381Y-81017122D01*
X120586719Y-81033896D01*
X120524106Y-81069016D01*
X120458592Y-81073710D01*
X120397579Y-81048440D01*
X120367072Y-81020124D01*
X120345089Y-80991589D01*
X120332231Y-80964284D01*
X120326588Y-80928750D01*
X120326249Y-80875524D01*
X120327988Y-80826506D01*
X120331729Y-80756482D01*
X120337659Y-80711064D01*
X120348347Y-80681440D01*
X120366361Y-80658797D01*
X120380637Y-80645855D01*
X120440349Y-80611860D01*
X120504766Y-80610165D01*
X120558781Y-80630301D01*
X120604860Y-80672352D01*
X120632311Y-80741428D01*
X120641257Y-80837910D01*
X120808329Y-80837910D01*
X120809401Y-80781299D01*
X120806036Y-80703468D01*
X120795955Y-80644930D01*
X120777774Y-80598737D01*
X120750110Y-80557942D01*
X120739854Y-80545828D01*
X120675722Y-80485474D01*
X120606934Y-80450220D01*
X120522811Y-80435450D01*
X120481791Y-80434243D01*
X120373216Y-80447104D01*
X120373216Y-80447104D01*
G37*
X120373216Y-80447104D02*
X120285795Y-80485754D01*
X120219430Y-80550290D01*
X120174024Y-80640812D01*
X120149482Y-80757418D01*
X120147723Y-80775624D01*
X120146344Y-80903984D01*
X120164216Y-81016496D01*
X120200250Y-81107688D01*
X120219545Y-81137022D01*
X120286755Y-81199106D01*
X120372350Y-81239316D01*
X120468110Y-81256003D01*
X120565813Y-81247517D01*
X120640083Y-81221380D01*
X120703953Y-81177335D01*
X120756154Y-81119587D01*
X120757057Y-81118236D01*
X120778256Y-81082593D01*
X120792033Y-81046752D01*
X120800376Y-81001519D01*
X120805273Y-80937701D01*
X120807431Y-80885368D01*
X120808329Y-80837910D01*
X120641257Y-80837910D01*
X120639624Y-80885154D01*
X120633696Y-80948046D01*
X120623239Y-80988407D01*
X120604381Y-81017122D01*
X120586719Y-81033896D01*
X120524106Y-81069016D01*
X120458592Y-81073710D01*
X120397579Y-81048440D01*
X120367072Y-81020124D01*
X120345089Y-80991589D01*
X120332231Y-80964284D01*
X120326588Y-80928750D01*
X120326249Y-80875524D01*
X120327988Y-80826506D01*
X120331729Y-80756482D01*
X120337659Y-80711064D01*
X120348347Y-80681440D01*
X120366361Y-80658797D01*
X120380637Y-80645855D01*
X120440349Y-80611860D01*
X120504766Y-80610165D01*
X120558781Y-80630301D01*
X120604860Y-80672352D01*
X120632311Y-80741428D01*
X120641257Y-80837910D01*
X120808329Y-80837910D01*
X120809401Y-80781299D01*
X120806036Y-80703468D01*
X120795955Y-80644930D01*
X120777774Y-80598737D01*
X120750110Y-80557942D01*
X120739854Y-80545828D01*
X120675722Y-80485474D01*
X120606934Y-80450220D01*
X120522811Y-80435450D01*
X120481791Y-80434243D01*
X120373216Y-80447104D01*
G36*
X114298807Y-81696078D02*
G01*
X114218932Y-81716845D01*
X114152038Y-81759705D01*
X114119649Y-81791723D01*
X114066555Y-81867413D01*
X114036127Y-81955216D01*
X114025673Y-82063150D01*
X114025620Y-82071875D01*
X114025527Y-82159605D01*
X114530466Y-82159605D01*
X114519702Y-82205559D01*
X114500268Y-82247178D01*
X114466255Y-82290544D01*
X114459140Y-82297467D01*
X114397997Y-82334935D01*
X114328271Y-82341289D01*
X114248013Y-82316638D01*
X114234408Y-82310000D01*
X114192681Y-82289819D01*
X114164732Y-82278321D01*
X114159855Y-82277258D01*
X114142832Y-82287583D01*
X114110367Y-82312845D01*
X114093886Y-82326650D01*
X114059736Y-82358361D01*
X114048522Y-82379299D01*
X114056305Y-82398560D01*
X114060465Y-82403827D01*
X114088643Y-82426878D01*
X114135138Y-82454892D01*
X114167566Y-82471246D01*
X114259615Y-82500059D01*
X114361524Y-82509395D01*
X114458037Y-82498332D01*
X114485066Y-82490412D01*
X114568724Y-82445581D01*
X114630734Y-82376598D01*
X114671455Y-82282794D01*
X114691245Y-82163498D01*
X114693418Y-82101118D01*
X114687074Y-82010298D01*
X114526843Y-82010298D01*
X114511345Y-82017012D01*
X114469688Y-82022280D01*
X114409124Y-82025389D01*
X114368093Y-82025921D01*
X114294289Y-82025408D01*
X114247707Y-82023006D01*
X114222152Y-82017422D01*
X114211431Y-82007361D01*
X114209343Y-81992763D01*
X114223669Y-81947796D01*
X114259738Y-81903353D01*
X114307185Y-81869242D01*
X114354651Y-81855288D01*
X114419121Y-81867666D01*
X114474930Y-81903452D01*
X114513626Y-81955033D01*
X114526843Y-82010298D01*
X114687074Y-82010298D01*
X114684179Y-81968866D01*
X114655664Y-81863498D01*
X114607271Y-81784178D01*
X114538396Y-81730071D01*
X114448435Y-81700343D01*
X114399700Y-81694618D01*
X114298807Y-81696078D01*
X114298807Y-81696078D01*
G37*
X114298807Y-81696078D02*
X114218932Y-81716845D01*
X114152038Y-81759705D01*
X114119649Y-81791723D01*
X114066555Y-81867413D01*
X114036127Y-81955216D01*
X114025673Y-82063150D01*
X114025620Y-82071875D01*
X114025527Y-82159605D01*
X114530466Y-82159605D01*
X114519702Y-82205559D01*
X114500268Y-82247178D01*
X114466255Y-82290544D01*
X114459140Y-82297467D01*
X114397997Y-82334935D01*
X114328271Y-82341289D01*
X114248013Y-82316638D01*
X114234408Y-82310000D01*
X114192681Y-82289819D01*
X114164732Y-82278321D01*
X114159855Y-82277258D01*
X114142832Y-82287583D01*
X114110367Y-82312845D01*
X114093886Y-82326650D01*
X114059736Y-82358361D01*
X114048522Y-82379299D01*
X114056305Y-82398560D01*
X114060465Y-82403827D01*
X114088643Y-82426878D01*
X114135138Y-82454892D01*
X114167566Y-82471246D01*
X114259615Y-82500059D01*
X114361524Y-82509395D01*
X114458037Y-82498332D01*
X114485066Y-82490412D01*
X114568724Y-82445581D01*
X114630734Y-82376598D01*
X114671455Y-82282794D01*
X114691245Y-82163498D01*
X114693418Y-82101118D01*
X114687074Y-82010298D01*
X114526843Y-82010298D01*
X114511345Y-82017012D01*
X114469688Y-82022280D01*
X114409124Y-82025389D01*
X114368093Y-82025921D01*
X114294289Y-82025408D01*
X114247707Y-82023006D01*
X114222152Y-82017422D01*
X114211431Y-82007361D01*
X114209343Y-81992763D01*
X114223669Y-81947796D01*
X114259738Y-81903353D01*
X114307185Y-81869242D01*
X114354651Y-81855288D01*
X114419121Y-81867666D01*
X114474930Y-81903452D01*
X114513626Y-81955033D01*
X114526843Y-82010298D01*
X114687074Y-82010298D01*
X114684179Y-81968866D01*
X114655664Y-81863498D01*
X114607271Y-81784178D01*
X114538396Y-81730071D01*
X114448435Y-81700343D01*
X114399700Y-81694618D01*
X114298807Y-81696078D01*
G36*
X114826833Y-81691447D02*
G01*
X114762592Y-81704112D01*
X114726020Y-81722864D01*
X114687547Y-81754017D01*
X114742283Y-81823127D01*
X114776031Y-81864979D01*
X114798947Y-81885398D01*
X114821721Y-81888517D01*
X114855044Y-81878472D01*
X114870686Y-81872789D01*
X114934458Y-81864404D01*
X114992860Y-81882378D01*
X115035736Y-81922982D01*
X115042701Y-81935929D01*
X115050287Y-81970224D01*
X115056141Y-82033427D01*
X115059989Y-82121060D01*
X115061557Y-82228640D01*
X115061579Y-82243944D01*
X115061579Y-82510526D01*
X115245395Y-82510526D01*
X115245395Y-81691710D01*
X115153487Y-81691710D01*
X115100493Y-81693094D01*
X115072885Y-81699252D01*
X115062676Y-81713194D01*
X115061579Y-81726344D01*
X115061579Y-81760978D01*
X115017550Y-81726344D01*
X114967063Y-81702716D01*
X114899240Y-81691033D01*
X114826833Y-81691447D01*
X114826833Y-81691447D01*
G37*
X114826833Y-81691447D02*
X114762592Y-81704112D01*
X114726020Y-81722864D01*
X114687547Y-81754017D01*
X114742283Y-81823127D01*
X114776031Y-81864979D01*
X114798947Y-81885398D01*
X114821721Y-81888517D01*
X114855044Y-81878472D01*
X114870686Y-81872789D01*
X114934458Y-81864404D01*
X114992860Y-81882378D01*
X115035736Y-81922982D01*
X115042701Y-81935929D01*
X115050287Y-81970224D01*
X115056141Y-82033427D01*
X115059989Y-82121060D01*
X115061557Y-82228640D01*
X115061579Y-82243944D01*
X115061579Y-82510526D01*
X115245395Y-82510526D01*
X115245395Y-81691710D01*
X115153487Y-81691710D01*
X115100493Y-81693094D01*
X115072885Y-81699252D01*
X115062676Y-81713194D01*
X115061579Y-81726344D01*
X115061579Y-81760978D01*
X115017550Y-81726344D01*
X114967063Y-81702716D01*
X114899240Y-81691033D01*
X114826833Y-81691447D01*
G36*
X115620008Y-81696673D02*
G01*
X115549573Y-81713780D01*
X115529213Y-81722844D01*
X115489747Y-81746583D01*
X115459459Y-81773321D01*
X115437048Y-81807699D01*
X115421214Y-81854360D01*
X115410657Y-81917946D01*
X115404076Y-82003099D01*
X115400172Y-82114462D01*
X115398690Y-82188849D01*
X115393235Y-82510526D01*
X115486420Y-82510526D01*
X115542953Y-82508156D01*
X115572078Y-82500055D01*
X115579606Y-82486451D01*
X115583580Y-82471741D01*
X115601348Y-82474554D01*
X115625560Y-82486348D01*
X115686172Y-82504427D01*
X115764071Y-82509299D01*
X115846005Y-82501330D01*
X115918719Y-82480889D01*
X115925241Y-82478051D01*
X115991698Y-82431365D01*
X116035509Y-82366464D01*
X116055668Y-82290600D01*
X116054128Y-82263344D01*
X115889655Y-82263344D01*
X115875163Y-82300024D01*
X115832195Y-82326309D01*
X115762871Y-82340417D01*
X115725823Y-82342290D01*
X115664081Y-82337494D01*
X115623040Y-82318858D01*
X115613027Y-82310000D01*
X115585900Y-82261806D01*
X115579606Y-82218092D01*
X115579606Y-82159605D01*
X115661070Y-82159605D01*
X115755766Y-82164432D01*
X115822187Y-82179613D01*
X115864154Y-82206200D01*
X115873551Y-82218052D01*
X115889655Y-82263344D01*
X116054128Y-82263344D01*
X116051171Y-82211026D01*
X116021015Y-82134995D01*
X115979869Y-82083612D01*
X115954948Y-82061397D01*
X115930552Y-82046798D01*
X115898809Y-82037897D01*
X115851848Y-82032775D01*
X115781796Y-82029515D01*
X115754010Y-82028577D01*
X115579606Y-82022879D01*
X115579862Y-81970091D01*
X115586616Y-81914603D01*
X115611036Y-81881052D01*
X115660370Y-81859618D01*
X115661694Y-81859236D01*
X115731640Y-81850808D01*
X115800086Y-81861816D01*
X115850953Y-81888585D01*
X115871363Y-81901803D01*
X115893346Y-81899974D01*
X115927174Y-81880824D01*
X115947039Y-81867308D01*
X115985894Y-81838432D01*
X116009962Y-81816786D01*
X116013824Y-81810589D01*
X115997921Y-81778519D01*
X115950935Y-81740219D01*
X115930527Y-81727297D01*
X115871857Y-81705041D01*
X115792788Y-81692432D01*
X115704959Y-81689600D01*
X115620008Y-81696673D01*
X115620008Y-81696673D01*
G37*
X115620008Y-81696673D02*
X115549573Y-81713780D01*
X115529213Y-81722844D01*
X115489747Y-81746583D01*
X115459459Y-81773321D01*
X115437048Y-81807699D01*
X115421214Y-81854360D01*
X115410657Y-81917946D01*
X115404076Y-82003099D01*
X115400172Y-82114462D01*
X115398690Y-82188849D01*
X115393235Y-82510526D01*
X115486420Y-82510526D01*
X115542953Y-82508156D01*
X115572078Y-82500055D01*
X115579606Y-82486451D01*
X115583580Y-82471741D01*
X115601348Y-82474554D01*
X115625560Y-82486348D01*
X115686172Y-82504427D01*
X115764071Y-82509299D01*
X115846005Y-82501330D01*
X115918719Y-82480889D01*
X115925241Y-82478051D01*
X115991698Y-82431365D01*
X116035509Y-82366464D01*
X116055668Y-82290600D01*
X116054128Y-82263344D01*
X115889655Y-82263344D01*
X115875163Y-82300024D01*
X115832195Y-82326309D01*
X115762871Y-82340417D01*
X115725823Y-82342290D01*
X115664081Y-82337494D01*
X115623040Y-82318858D01*
X115613027Y-82310000D01*
X115585900Y-82261806D01*
X115579606Y-82218092D01*
X115579606Y-82159605D01*
X115661070Y-82159605D01*
X115755766Y-82164432D01*
X115822187Y-82179613D01*
X115864154Y-82206200D01*
X115873551Y-82218052D01*
X115889655Y-82263344D01*
X116054128Y-82263344D01*
X116051171Y-82211026D01*
X116021015Y-82134995D01*
X115979869Y-82083612D01*
X115954948Y-82061397D01*
X115930552Y-82046798D01*
X115898809Y-82037897D01*
X115851848Y-82032775D01*
X115781796Y-82029515D01*
X115754010Y-82028577D01*
X115579606Y-82022879D01*
X115579862Y-81970091D01*
X115586616Y-81914603D01*
X115611036Y-81881052D01*
X115660370Y-81859618D01*
X115661694Y-81859236D01*
X115731640Y-81850808D01*
X115800086Y-81861816D01*
X115850953Y-81888585D01*
X115871363Y-81901803D01*
X115893346Y-81899974D01*
X115927174Y-81880824D01*
X115947039Y-81867308D01*
X115985894Y-81838432D01*
X116009962Y-81816786D01*
X116013824Y-81810589D01*
X115997921Y-81778519D01*
X115950935Y-81740219D01*
X115930527Y-81727297D01*
X115871857Y-81705041D01*
X115792788Y-81692432D01*
X115704959Y-81689600D01*
X115620008Y-81696673D01*
G36*
X116625870Y-81695104D02*
G01*
X116559780Y-81700066D01*
X116473374Y-81959079D01*
X116386969Y-82218092D01*
X116359876Y-82126184D01*
X116343572Y-82069384D01*
X116322125Y-81992625D01*
X116298965Y-81908251D01*
X116286720Y-81862993D01*
X116240656Y-81691710D01*
X116050613Y-81691710D01*
X116107418Y-81871349D01*
X116135393Y-81959704D01*
X116169187Y-82066281D01*
X116204480Y-82177454D01*
X116235987Y-82276579D01*
X116307750Y-82502171D01*
X116462714Y-82512253D01*
X116504730Y-82373528D01*
X116530641Y-82287351D01*
X116558917Y-82192347D01*
X116583631Y-82108441D01*
X116584606Y-82105102D01*
X116603065Y-82048248D01*
X116619351Y-82009456D01*
X116630758Y-81994787D01*
X116633102Y-81996483D01*
X116641329Y-82019225D01*
X116656962Y-82067940D01*
X116678096Y-82136502D01*
X116702830Y-82218785D01*
X116716213Y-82264046D01*
X116788689Y-82510526D01*
X116942505Y-82510526D01*
X117065469Y-82122006D01*
X117100012Y-82013022D01*
X117131479Y-81914048D01*
X117158384Y-81829736D01*
X117179241Y-81764734D01*
X117192562Y-81723692D01*
X117196612Y-81711701D01*
X117193406Y-81699423D01*
X117168235Y-81694046D01*
X117115854Y-81694584D01*
X117107655Y-81694990D01*
X117010518Y-81700066D01*
X116946900Y-81934013D01*
X116923516Y-82019333D01*
X116902619Y-82094335D01*
X116886049Y-82152507D01*
X116875646Y-82187337D01*
X116873724Y-82193016D01*
X116865759Y-82186486D01*
X116849696Y-82152654D01*
X116827379Y-82096127D01*
X116800655Y-82021510D01*
X116778063Y-81954107D01*
X116691959Y-81690143D01*
X116625870Y-81695104D01*
X116625870Y-81695104D01*
G37*
X116625870Y-81695104D02*
X116559780Y-81700066D01*
X116473374Y-81959079D01*
X116386969Y-82218092D01*
X116359876Y-82126184D01*
X116343572Y-82069384D01*
X116322125Y-81992625D01*
X116298965Y-81908251D01*
X116286720Y-81862993D01*
X116240656Y-81691710D01*
X116050613Y-81691710D01*
X116107418Y-81871349D01*
X116135393Y-81959704D01*
X116169187Y-82066281D01*
X116204480Y-82177454D01*
X116235987Y-82276579D01*
X116307750Y-82502171D01*
X116462714Y-82512253D01*
X116504730Y-82373528D01*
X116530641Y-82287351D01*
X116558917Y-82192347D01*
X116583631Y-82108441D01*
X116584606Y-82105102D01*
X116603065Y-82048248D01*
X116619351Y-82009456D01*
X116630758Y-81994787D01*
X116633102Y-81996483D01*
X116641329Y-82019225D01*
X116656962Y-82067940D01*
X116678096Y-82136502D01*
X116702830Y-82218785D01*
X116716213Y-82264046D01*
X116788689Y-82510526D01*
X116942505Y-82510526D01*
X117065469Y-82122006D01*
X117100012Y-82013022D01*
X117131479Y-81914048D01*
X117158384Y-81829736D01*
X117179241Y-81764734D01*
X117192562Y-81723692D01*
X117196612Y-81711701D01*
X117193406Y-81699423D01*
X117168235Y-81694046D01*
X117115854Y-81694584D01*
X117107655Y-81694990D01*
X117010518Y-81700066D01*
X116946900Y-81934013D01*
X116923516Y-82019333D01*
X116902619Y-82094335D01*
X116886049Y-82152507D01*
X116875646Y-82187337D01*
X116873724Y-82193016D01*
X116865759Y-82186486D01*
X116849696Y-82152654D01*
X116827379Y-82096127D01*
X116800655Y-82021510D01*
X116778063Y-81954107D01*
X116691959Y-81690143D01*
X116625870Y-81695104D01*
G36*
X117267369Y-82510526D02*
G01*
X117359277Y-82510526D01*
X117412623Y-82508962D01*
X117440407Y-82502485D01*
X117450410Y-82488418D01*
X117451185Y-82478906D01*
X117452872Y-82459832D01*
X117463510Y-82456174D01*
X117491465Y-82467932D01*
X117513205Y-82478906D01*
X117596668Y-82504911D01*
X117687396Y-82506416D01*
X117761158Y-82487021D01*
X117829846Y-82440165D01*
X117882206Y-82371004D01*
X117910878Y-82289427D01*
X117911608Y-82284866D01*
X117915868Y-82235101D01*
X117917986Y-82163659D01*
X117917816Y-82109626D01*
X117735280Y-82109626D01*
X117731051Y-82181441D01*
X117721432Y-82240634D01*
X117708410Y-82274060D01*
X117659144Y-82319740D01*
X117600650Y-82336115D01*
X117540329Y-82322873D01*
X117488783Y-82283373D01*
X117469262Y-82256807D01*
X117457848Y-82225106D01*
X117452502Y-82178832D01*
X117451185Y-82109328D01*
X117453542Y-82040499D01*
X117459767Y-81980026D01*
X117468592Y-81939556D01*
X117470063Y-81935929D01*
X117505653Y-81892802D01*
X117557600Y-81869124D01*
X117615722Y-81865301D01*
X117669840Y-81881738D01*
X117709774Y-81918840D01*
X117713917Y-81926222D01*
X117726884Y-81971239D01*
X117733948Y-82035967D01*
X117735280Y-82109626D01*
X117917816Y-82109626D01*
X117917729Y-82082230D01*
X117916528Y-82038405D01*
X117908355Y-81929988D01*
X117891370Y-81848588D01*
X117863113Y-81788412D01*
X117821128Y-81743666D01*
X117780368Y-81717400D01*
X117723419Y-81698935D01*
X117652589Y-81692602D01*
X117580059Y-81697760D01*
X117518014Y-81713769D01*
X117485232Y-81732920D01*
X117451185Y-81763732D01*
X117451185Y-81374210D01*
X117267369Y-81374210D01*
X117267369Y-82510526D01*
X117267369Y-82510526D01*
G37*
X117267369Y-82510526D02*
X117359277Y-82510526D01*
X117412623Y-82508962D01*
X117440407Y-82502485D01*
X117450410Y-82488418D01*
X117451185Y-82478906D01*
X117452872Y-82459832D01*
X117463510Y-82456174D01*
X117491465Y-82467932D01*
X117513205Y-82478906D01*
X117596668Y-82504911D01*
X117687396Y-82506416D01*
X117761158Y-82487021D01*
X117829846Y-82440165D01*
X117882206Y-82371004D01*
X117910878Y-82289427D01*
X117911608Y-82284866D01*
X117915868Y-82235101D01*
X117917986Y-82163659D01*
X117917816Y-82109626D01*
X117735280Y-82109626D01*
X117731051Y-82181441D01*
X117721432Y-82240634D01*
X117708410Y-82274060D01*
X117659144Y-82319740D01*
X117600650Y-82336115D01*
X117540329Y-82322873D01*
X117488783Y-82283373D01*
X117469262Y-82256807D01*
X117457848Y-82225106D01*
X117452502Y-82178832D01*
X117451185Y-82109328D01*
X117453542Y-82040499D01*
X117459767Y-81980026D01*
X117468592Y-81939556D01*
X117470063Y-81935929D01*
X117505653Y-81892802D01*
X117557600Y-81869124D01*
X117615722Y-81865301D01*
X117669840Y-81881738D01*
X117709774Y-81918840D01*
X117713917Y-81926222D01*
X117726884Y-81971239D01*
X117733948Y-82035967D01*
X117735280Y-82109626D01*
X117917816Y-82109626D01*
X117917729Y-82082230D01*
X117916528Y-82038405D01*
X117908355Y-81929988D01*
X117891370Y-81848588D01*
X117863113Y-81788412D01*
X117821128Y-81743666D01*
X117780368Y-81717400D01*
X117723419Y-81698935D01*
X117652589Y-81692602D01*
X117580059Y-81697760D01*
X117518014Y-81713769D01*
X117485232Y-81732920D01*
X117451185Y-81763732D01*
X117451185Y-81374210D01*
X117267369Y-81374210D01*
X117267369Y-82510526D01*
G36*
X118320119Y-81693486D02*
G01*
X118295112Y-81700982D01*
X118287050Y-81717451D01*
X118286711Y-81724886D01*
X118285264Y-81745594D01*
X118275302Y-81748845D01*
X118248388Y-81734648D01*
X118232402Y-81724948D01*
X118181967Y-81704175D01*
X118121728Y-81693904D01*
X118058566Y-81693114D01*
X117999363Y-81700786D01*
X117950998Y-81715898D01*
X117920354Y-81737432D01*
X117914311Y-81764366D01*
X117917361Y-81771660D01*
X117939594Y-81801937D01*
X117974070Y-81839175D01*
X117980306Y-81845195D01*
X118013167Y-81872875D01*
X118041520Y-81881818D01*
X118081173Y-81875576D01*
X118097058Y-81871429D01*
X118146491Y-81861467D01*
X118181248Y-81865947D01*
X118210600Y-81881746D01*
X118237487Y-81902949D01*
X118257290Y-81929614D01*
X118271052Y-81966827D01*
X118279816Y-82019673D01*
X118284626Y-82093237D01*
X118286526Y-82192605D01*
X118286711Y-82252601D01*
X118286711Y-82510526D01*
X118453816Y-82510526D01*
X118453816Y-81691710D01*
X118370264Y-81691710D01*
X118320119Y-81693486D01*
X118320119Y-81693486D01*
G37*
X118320119Y-81693486D02*
X118295112Y-81700982D01*
X118287050Y-81717451D01*
X118286711Y-81724886D01*
X118285264Y-81745594D01*
X118275302Y-81748845D01*
X118248388Y-81734648D01*
X118232402Y-81724948D01*
X118181967Y-81704175D01*
X118121728Y-81693904D01*
X118058566Y-81693114D01*
X117999363Y-81700786D01*
X117950998Y-81715898D01*
X117920354Y-81737432D01*
X117914311Y-81764366D01*
X117917361Y-81771660D01*
X117939594Y-81801937D01*
X117974070Y-81839175D01*
X117980306Y-81845195D01*
X118013167Y-81872875D01*
X118041520Y-81881818D01*
X118081173Y-81875576D01*
X118097058Y-81871429D01*
X118146491Y-81861467D01*
X118181248Y-81865947D01*
X118210600Y-81881746D01*
X118237487Y-81902949D01*
X118257290Y-81929614D01*
X118271052Y-81966827D01*
X118279816Y-82019673D01*
X118284626Y-82093237D01*
X118286526Y-82192605D01*
X118286711Y-82252601D01*
X118286711Y-82510526D01*
X118453816Y-82510526D01*
X118453816Y-81691710D01*
X118370264Y-81691710D01*
X118320119Y-81693486D01*
G36*
X118839543Y-81698184D02*
G01*
X118760930Y-81719160D01*
X118701084Y-81757180D01*
X118658853Y-81806978D01*
X118645725Y-81828230D01*
X118636032Y-81850492D01*
X118629256Y-81878970D01*
X118624877Y-81918871D01*
X118622376Y-81975401D01*
X118621232Y-82053767D01*
X118620928Y-82159176D01*
X118620922Y-82187142D01*
X118620922Y-82510526D01*
X118701132Y-82510526D01*
X118752294Y-82506943D01*
X118790123Y-82497866D01*
X118799601Y-82492268D01*
X118825512Y-82482606D01*
X118851976Y-82492268D01*
X118895548Y-82504330D01*
X118958840Y-82509185D01*
X119028990Y-82507078D01*
X119093140Y-82498256D01*
X119130593Y-82486937D01*
X119203067Y-82440412D01*
X119248360Y-82375846D01*
X119268722Y-82290000D01*
X119268912Y-82287796D01*
X119267125Y-82249713D01*
X119105527Y-82249713D01*
X119091399Y-82293030D01*
X119068388Y-82317408D01*
X119022196Y-82335845D01*
X118961225Y-82343205D01*
X118899051Y-82339583D01*
X118849249Y-82325074D01*
X118835297Y-82315765D01*
X118810915Y-82272753D01*
X118804737Y-82223857D01*
X118804737Y-82159605D01*
X118897182Y-82159605D01*
X118985005Y-82166366D01*
X119051582Y-82185520D01*
X119092998Y-82215376D01*
X119105527Y-82249713D01*
X119267125Y-82249713D01*
X119264510Y-82194004D01*
X119233576Y-82119847D01*
X119175419Y-82063767D01*
X119167380Y-82058665D01*
X119132837Y-82042055D01*
X119090082Y-82031996D01*
X119030314Y-82027107D01*
X118959310Y-82025983D01*
X118804737Y-82025921D01*
X118804737Y-81961125D01*
X118811294Y-81910850D01*
X118828025Y-81877169D01*
X118829984Y-81875376D01*
X118867217Y-81860642D01*
X118923420Y-81854931D01*
X118985533Y-81857737D01*
X119040490Y-81868556D01*
X119073101Y-81884782D01*
X119090772Y-81897780D01*
X119109431Y-81900262D01*
X119135181Y-81889613D01*
X119174127Y-81863218D01*
X119232370Y-81818465D01*
X119237716Y-81814273D01*
X119234977Y-81798760D01*
X119212124Y-81772960D01*
X119177391Y-81744289D01*
X119139010Y-81720166D01*
X119126952Y-81714470D01*
X119082966Y-81703103D01*
X119018513Y-81694995D01*
X118946503Y-81691743D01*
X118943136Y-81691736D01*
X118839543Y-81698184D01*
X118839543Y-81698184D01*
G37*
X118839543Y-81698184D02*
X118760930Y-81719160D01*
X118701084Y-81757180D01*
X118658853Y-81806978D01*
X118645725Y-81828230D01*
X118636032Y-81850492D01*
X118629256Y-81878970D01*
X118624877Y-81918871D01*
X118622376Y-81975401D01*
X118621232Y-82053767D01*
X118620928Y-82159176D01*
X118620922Y-82187142D01*
X118620922Y-82510526D01*
X118701132Y-82510526D01*
X118752294Y-82506943D01*
X118790123Y-82497866D01*
X118799601Y-82492268D01*
X118825512Y-82482606D01*
X118851976Y-82492268D01*
X118895548Y-82504330D01*
X118958840Y-82509185D01*
X119028990Y-82507078D01*
X119093140Y-82498256D01*
X119130593Y-82486937D01*
X119203067Y-82440412D01*
X119248360Y-82375846D01*
X119268722Y-82290000D01*
X119268912Y-82287796D01*
X119267125Y-82249713D01*
X119105527Y-82249713D01*
X119091399Y-82293030D01*
X119068388Y-82317408D01*
X119022196Y-82335845D01*
X118961225Y-82343205D01*
X118899051Y-82339583D01*
X118849249Y-82325074D01*
X118835297Y-82315765D01*
X118810915Y-82272753D01*
X118804737Y-82223857D01*
X118804737Y-82159605D01*
X118897182Y-82159605D01*
X118985005Y-82166366D01*
X119051582Y-82185520D01*
X119092998Y-82215376D01*
X119105527Y-82249713D01*
X119267125Y-82249713D01*
X119264510Y-82194004D01*
X119233576Y-82119847D01*
X119175419Y-82063767D01*
X119167380Y-82058665D01*
X119132837Y-82042055D01*
X119090082Y-82031996D01*
X119030314Y-82027107D01*
X118959310Y-82025983D01*
X118804737Y-82025921D01*
X118804737Y-81961125D01*
X118811294Y-81910850D01*
X118828025Y-81877169D01*
X118829984Y-81875376D01*
X118867217Y-81860642D01*
X118923420Y-81854931D01*
X118985533Y-81857737D01*
X119040490Y-81868556D01*
X119073101Y-81884782D01*
X119090772Y-81897780D01*
X119109431Y-81900262D01*
X119135181Y-81889613D01*
X119174127Y-81863218D01*
X119232370Y-81818465D01*
X119237716Y-81814273D01*
X119234977Y-81798760D01*
X119212124Y-81772960D01*
X119177391Y-81744289D01*
X119139010Y-81720166D01*
X119126952Y-81714470D01*
X119082966Y-81703103D01*
X119018513Y-81694995D01*
X118946503Y-81691743D01*
X118943136Y-81691736D01*
X118839543Y-81698184D01*
G36*
X119536640Y-80452468D02*
G01*
X119501408Y-80469874D01*
X119457960Y-80500206D01*
X119426294Y-80533283D01*
X119404606Y-80574817D01*
X119391097Y-80630522D01*
X119383962Y-80706111D01*
X119381400Y-80807296D01*
X119381250Y-80850797D01*
X119381688Y-80946135D01*
X119383504Y-81014271D01*
X119387455Y-81061418D01*
X119394298Y-81093790D01*
X119404789Y-81117600D01*
X119415704Y-81133843D01*
X119485381Y-81202952D01*
X119567434Y-81244521D01*
X119655950Y-81257023D01*
X119745019Y-81238934D01*
X119773237Y-81226142D01*
X119840790Y-81190931D01*
X119840790Y-81742700D01*
X119791488Y-81717205D01*
X119726527Y-81697480D01*
X119646680Y-81692427D01*
X119566948Y-81701756D01*
X119506735Y-81722714D01*
X119456792Y-81762627D01*
X119414119Y-81819741D01*
X119410910Y-81825605D01*
X119397378Y-81853227D01*
X119387495Y-81881068D01*
X119380691Y-81914794D01*
X119376399Y-81960071D01*
X119374049Y-82022562D01*
X119373072Y-82107935D01*
X119372895Y-82204010D01*
X119372895Y-82510526D01*
X119556711Y-82510526D01*
X119556711Y-81945339D01*
X119608125Y-81902077D01*
X119661534Y-81867472D01*
X119712112Y-81861180D01*
X119762970Y-81877372D01*
X119790075Y-81893227D01*
X119810249Y-81915810D01*
X119824597Y-81949940D01*
X119834224Y-82000434D01*
X119840237Y-82072111D01*
X119843740Y-82169788D01*
X119844974Y-82234802D01*
X119849145Y-82502171D01*
X119936875Y-82507222D01*
X120024606Y-82512273D01*
X120024606Y-80853101D01*
X119840790Y-80853101D01*
X119836104Y-80945600D01*
X119820312Y-81009809D01*
X119790817Y-81049759D01*
X119745020Y-81069480D01*
X119698750Y-81073421D01*
X119646372Y-81068892D01*
X119611610Y-81051069D01*
X119589872Y-81027519D01*
X119572760Y-81002189D01*
X119562573Y-80973969D01*
X119558040Y-80934431D01*
X119557891Y-80875142D01*
X119559416Y-80825498D01*
X119562919Y-80750710D01*
X119568133Y-80701611D01*
X119576913Y-80670467D01*
X119591114Y-80649545D01*
X119604516Y-80637452D01*
X119660513Y-80611081D01*
X119726789Y-80606822D01*
X119764844Y-80615906D01*
X119802523Y-80648196D01*
X119827481Y-80711006D01*
X119839578Y-80803894D01*
X119840790Y-80853101D01*
X120024606Y-80853101D01*
X120024606Y-80438421D01*
X119932698Y-80438421D01*
X119877517Y-80440603D01*
X119849048Y-80448351D01*
X119840794Y-80463468D01*
X119840790Y-80463916D01*
X119836960Y-80478720D01*
X119820067Y-80477039D01*
X119786481Y-80460772D01*
X119708222Y-80435887D01*
X119620173Y-80433271D01*
X119536640Y-80452468D01*
X119536640Y-80452468D01*
G37*
X119536640Y-80452468D02*
X119501408Y-80469874D01*
X119457960Y-80500206D01*
X119426294Y-80533283D01*
X119404606Y-80574817D01*
X119391097Y-80630522D01*
X119383962Y-80706111D01*
X119381400Y-80807296D01*
X119381250Y-80850797D01*
X119381688Y-80946135D01*
X119383504Y-81014271D01*
X119387455Y-81061418D01*
X119394298Y-81093790D01*
X119404789Y-81117600D01*
X119415704Y-81133843D01*
X119485381Y-81202952D01*
X119567434Y-81244521D01*
X119655950Y-81257023D01*
X119745019Y-81238934D01*
X119773237Y-81226142D01*
X119840790Y-81190931D01*
X119840790Y-81742700D01*
X119791488Y-81717205D01*
X119726527Y-81697480D01*
X119646680Y-81692427D01*
X119566948Y-81701756D01*
X119506735Y-81722714D01*
X119456792Y-81762627D01*
X119414119Y-81819741D01*
X119410910Y-81825605D01*
X119397378Y-81853227D01*
X119387495Y-81881068D01*
X119380691Y-81914794D01*
X119376399Y-81960071D01*
X119374049Y-82022562D01*
X119373072Y-82107935D01*
X119372895Y-82204010D01*
X119372895Y-82510526D01*
X119556711Y-82510526D01*
X119556711Y-81945339D01*
X119608125Y-81902077D01*
X119661534Y-81867472D01*
X119712112Y-81861180D01*
X119762970Y-81877372D01*
X119790075Y-81893227D01*
X119810249Y-81915810D01*
X119824597Y-81949940D01*
X119834224Y-82000434D01*
X119840237Y-82072111D01*
X119843740Y-82169788D01*
X119844974Y-82234802D01*
X119849145Y-82502171D01*
X119936875Y-82507222D01*
X120024606Y-82512273D01*
X120024606Y-80853101D01*
X119840790Y-80853101D01*
X119836104Y-80945600D01*
X119820312Y-81009809D01*
X119790817Y-81049759D01*
X119745020Y-81069480D01*
X119698750Y-81073421D01*
X119646372Y-81068892D01*
X119611610Y-81051069D01*
X119589872Y-81027519D01*
X119572760Y-81002189D01*
X119562573Y-80973969D01*
X119558040Y-80934431D01*
X119557891Y-80875142D01*
X119559416Y-80825498D01*
X119562919Y-80750710D01*
X119568133Y-80701611D01*
X119576913Y-80670467D01*
X119591114Y-80649545D01*
X119604516Y-80637452D01*
X119660513Y-80611081D01*
X119726789Y-80606822D01*
X119764844Y-80615906D01*
X119802523Y-80648196D01*
X119827481Y-80711006D01*
X119839578Y-80803894D01*
X119840790Y-80853101D01*
X120024606Y-80853101D01*
X120024606Y-80438421D01*
X119932698Y-80438421D01*
X119877517Y-80440603D01*
X119849048Y-80448351D01*
X119840794Y-80463468D01*
X119840790Y-80463916D01*
X119836960Y-80478720D01*
X119820067Y-80477039D01*
X119786481Y-80460772D01*
X119708222Y-80435887D01*
X119620173Y-80433271D01*
X119536640Y-80452468D01*
M02*
