G04 #@! TF.GenerationSoftware,KiCad,Pcbnew,5.1.4+dfsg1-1*
G04 #@! TF.CreationDate,2020-01-04T00:08:43+00:00*
G04 #@! TF.ProjectId,LithiumBatteryEmulator,4c697468-6975-46d4-9261-747465727945,rev?*
G04 #@! TF.SameCoordinates,Original*
G04 #@! TF.FileFunction,Soldermask,Bot*
G04 #@! TF.FilePolarity,Negative*
%FSLAX46Y46*%
G04 Gerber Fmt 4.6, Leading zero omitted, Abs format (unit mm)*
G04 Created by KiCad (PCBNEW 5.1.4+dfsg1-1) date 2020-01-04 00:08:43*
%MOMM*%
%LPD*%
G04 APERTURE LIST*
%ADD10C,0.100000*%
G04 APERTURE END LIST*
D10*
G36*
X126375256Y-89391298D02*
G01*
X126481579Y-89412447D01*
X126782042Y-89536903D01*
X127052451Y-89717585D01*
X127282415Y-89947549D01*
X127463097Y-90217958D01*
X127587553Y-90518421D01*
X127651000Y-90837391D01*
X127651000Y-91162609D01*
X127587553Y-91481579D01*
X127463097Y-91782042D01*
X127282415Y-92052451D01*
X127052451Y-92282415D01*
X126782042Y-92463097D01*
X126481579Y-92587553D01*
X126375256Y-92608702D01*
X126162611Y-92651000D01*
X125837389Y-92651000D01*
X125624744Y-92608702D01*
X125518421Y-92587553D01*
X125217958Y-92463097D01*
X124947549Y-92282415D01*
X124717585Y-92052451D01*
X124536903Y-91782042D01*
X124412447Y-91481579D01*
X124349000Y-91162609D01*
X124349000Y-90837391D01*
X124412447Y-90518421D01*
X124536903Y-90217958D01*
X124717585Y-89947549D01*
X124947549Y-89717585D01*
X125217958Y-89536903D01*
X125518421Y-89412447D01*
X125624744Y-89391298D01*
X125837389Y-89349000D01*
X126162611Y-89349000D01*
X126375256Y-89391298D01*
X126375256Y-89391298D01*
G37*
G36*
X84375256Y-89391298D02*
G01*
X84481579Y-89412447D01*
X84782042Y-89536903D01*
X85052451Y-89717585D01*
X85282415Y-89947549D01*
X85463097Y-90217958D01*
X85587553Y-90518421D01*
X85651000Y-90837391D01*
X85651000Y-91162609D01*
X85587553Y-91481579D01*
X85463097Y-91782042D01*
X85282415Y-92052451D01*
X85052451Y-92282415D01*
X84782042Y-92463097D01*
X84481579Y-92587553D01*
X84375256Y-92608702D01*
X84162611Y-92651000D01*
X83837389Y-92651000D01*
X83624744Y-92608702D01*
X83518421Y-92587553D01*
X83217958Y-92463097D01*
X82947549Y-92282415D01*
X82717585Y-92052451D01*
X82536903Y-91782042D01*
X82412447Y-91481579D01*
X82349000Y-91162609D01*
X82349000Y-90837391D01*
X82412447Y-90518421D01*
X82536903Y-90217958D01*
X82717585Y-89947549D01*
X82947549Y-89717585D01*
X83217958Y-89536903D01*
X83518421Y-89412447D01*
X83624744Y-89391298D01*
X83837389Y-89349000D01*
X84162611Y-89349000D01*
X84375256Y-89391298D01*
X84375256Y-89391298D01*
G37*
G36*
X81948213Y-85006249D02*
G01*
X82042652Y-85034897D01*
X82129687Y-85081418D01*
X82205975Y-85144025D01*
X82268582Y-85220313D01*
X82315103Y-85307348D01*
X82343751Y-85401787D01*
X82353424Y-85500000D01*
X82343751Y-85598213D01*
X82315103Y-85692652D01*
X82268582Y-85779687D01*
X82205975Y-85855975D01*
X82129687Y-85918582D01*
X82042652Y-85965103D01*
X81948213Y-85993751D01*
X81874612Y-86001000D01*
X81125388Y-86001000D01*
X81051787Y-85993751D01*
X80957348Y-85965103D01*
X80870313Y-85918582D01*
X80794025Y-85855975D01*
X80731418Y-85779687D01*
X80684897Y-85692652D01*
X80656249Y-85598213D01*
X80646576Y-85500000D01*
X80656249Y-85401787D01*
X80684897Y-85307348D01*
X80731418Y-85220313D01*
X80794025Y-85144025D01*
X80870313Y-85081418D01*
X80957348Y-85034897D01*
X81051787Y-85006249D01*
X81125388Y-84999000D01*
X81874612Y-84999000D01*
X81948213Y-85006249D01*
X81948213Y-85006249D01*
G37*
G36*
X126686558Y-82313480D02*
G01*
X126754174Y-82326929D01*
X126806939Y-82348785D01*
X126881559Y-82379694D01*
X126996204Y-82456297D01*
X127093703Y-82553796D01*
X127170306Y-82668441D01*
X127223071Y-82795827D01*
X127249970Y-82931058D01*
X127249970Y-83068942D01*
X127223071Y-83204173D01*
X127170306Y-83331559D01*
X127093703Y-83446204D01*
X126996204Y-83543703D01*
X126881559Y-83620306D01*
X126806939Y-83651215D01*
X126754174Y-83673071D01*
X126686557Y-83686521D01*
X126618942Y-83699970D01*
X126481058Y-83699970D01*
X126413443Y-83686521D01*
X126345826Y-83673071D01*
X126293061Y-83651215D01*
X126218441Y-83620306D01*
X126103796Y-83543703D01*
X126006297Y-83446204D01*
X125929694Y-83331559D01*
X125876929Y-83204173D01*
X125850030Y-83068942D01*
X125850030Y-82931058D01*
X125876929Y-82795827D01*
X125929694Y-82668441D01*
X126006297Y-82553796D01*
X126103796Y-82456297D01*
X126218441Y-82379694D01*
X126293061Y-82348785D01*
X126345826Y-82326929D01*
X126413442Y-82313480D01*
X126481058Y-82300030D01*
X126618942Y-82300030D01*
X126686558Y-82313480D01*
X126686558Y-82313480D01*
G37*
G36*
X127249970Y-81699970D02*
G01*
X125850030Y-81699970D01*
X125850030Y-80300030D01*
X127249970Y-80300030D01*
X127249970Y-81699970D01*
X127249970Y-81699970D01*
G37*
G36*
X81948213Y-78406249D02*
G01*
X82042652Y-78434897D01*
X82129687Y-78481418D01*
X82205975Y-78544025D01*
X82268582Y-78620313D01*
X82315103Y-78707348D01*
X82343751Y-78801787D01*
X82353424Y-78900000D01*
X82343751Y-78998213D01*
X82315103Y-79092652D01*
X82268582Y-79179687D01*
X82205975Y-79255975D01*
X82129687Y-79318582D01*
X82042652Y-79365103D01*
X81948213Y-79393751D01*
X81874612Y-79401000D01*
X81125388Y-79401000D01*
X81051787Y-79393751D01*
X80957348Y-79365103D01*
X80870313Y-79318582D01*
X80794025Y-79255975D01*
X80731418Y-79179687D01*
X80684897Y-79092652D01*
X80656249Y-78998213D01*
X80646576Y-78900000D01*
X80656249Y-78801787D01*
X80684897Y-78707348D01*
X80731418Y-78620313D01*
X80794025Y-78544025D01*
X80870313Y-78481418D01*
X80957348Y-78434897D01*
X81051787Y-78406249D01*
X81125388Y-78399000D01*
X81874612Y-78399000D01*
X81948213Y-78406249D01*
X81948213Y-78406249D01*
G37*
G36*
X126375256Y-72391298D02*
G01*
X126481579Y-72412447D01*
X126782042Y-72536903D01*
X127052451Y-72717585D01*
X127282415Y-72947549D01*
X127463097Y-73217958D01*
X127587553Y-73518421D01*
X127651000Y-73837391D01*
X127651000Y-74162609D01*
X127587553Y-74481579D01*
X127463097Y-74782042D01*
X127282415Y-75052451D01*
X127052451Y-75282415D01*
X126782042Y-75463097D01*
X126481579Y-75587553D01*
X126375256Y-75608702D01*
X126162611Y-75651000D01*
X125837389Y-75651000D01*
X125624744Y-75608702D01*
X125518421Y-75587553D01*
X125217958Y-75463097D01*
X124947549Y-75282415D01*
X124717585Y-75052451D01*
X124536903Y-74782042D01*
X124412447Y-74481579D01*
X124349000Y-74162609D01*
X124349000Y-73837391D01*
X124412447Y-73518421D01*
X124536903Y-73217958D01*
X124717585Y-72947549D01*
X124947549Y-72717585D01*
X125217958Y-72536903D01*
X125518421Y-72412447D01*
X125624744Y-72391298D01*
X125837389Y-72349000D01*
X126162611Y-72349000D01*
X126375256Y-72391298D01*
X126375256Y-72391298D01*
G37*
G36*
X84375256Y-72391298D02*
G01*
X84481579Y-72412447D01*
X84782042Y-72536903D01*
X85052451Y-72717585D01*
X85282415Y-72947549D01*
X85463097Y-73217958D01*
X85587553Y-73518421D01*
X85651000Y-73837391D01*
X85651000Y-74162609D01*
X85587553Y-74481579D01*
X85463097Y-74782042D01*
X85282415Y-75052451D01*
X85052451Y-75282415D01*
X84782042Y-75463097D01*
X84481579Y-75587553D01*
X84375256Y-75608702D01*
X84162611Y-75651000D01*
X83837389Y-75651000D01*
X83624744Y-75608702D01*
X83518421Y-75587553D01*
X83217958Y-75463097D01*
X82947549Y-75282415D01*
X82717585Y-75052451D01*
X82536903Y-74782042D01*
X82412447Y-74481579D01*
X82349000Y-74162609D01*
X82349000Y-73837391D01*
X82412447Y-73518421D01*
X82536903Y-73217958D01*
X82717585Y-72947549D01*
X82947549Y-72717585D01*
X83217958Y-72536903D01*
X83518421Y-72412447D01*
X83624744Y-72391298D01*
X83837389Y-72349000D01*
X84162611Y-72349000D01*
X84375256Y-72391298D01*
X84375256Y-72391298D01*
G37*
M02*
