G04 #@! TF.GenerationSoftware,KiCad,Pcbnew,5.1.4+dfsg1-1*
G04 #@! TF.CreationDate,2020-01-04T00:08:43+00:00*
G04 #@! TF.ProjectId,LithiumBatteryEmulator,4c697468-6975-46d4-9261-747465727945,rev?*
G04 #@! TF.SameCoordinates,Original*
G04 #@! TF.FileFunction,Legend,Top*
G04 #@! TF.FilePolarity,Positive*
%FSLAX46Y46*%
G04 Gerber Fmt 4.6, Leading zero omitted, Abs format (unit mm)*
G04 Created by KiCad (PCBNEW 5.1.4+dfsg1-1) date 2020-01-04 00:08:43*
%MOMM*%
%LPD*%
G04 APERTURE LIST*
%ADD10C,0.066040*%
%ADD11C,0.127000*%
%ADD12C,0.076200*%
%ADD13C,0.152400*%
%ADD14C,0.100000*%
%ADD15C,0.150000*%
%ADD16C,0.101600*%
G04 APERTURE END LIST*
D10*
X114253500Y-93651000D02*
X121746500Y-93651000D01*
X121746500Y-93651000D02*
X121746500Y-90349000D01*
X114253500Y-90349000D02*
X121746500Y-90349000D01*
X114253500Y-93651000D02*
X114253500Y-90349000D01*
D11*
X114253500Y-90349000D02*
X121746500Y-90349000D01*
X121746500Y-90349000D02*
X121746500Y-93651000D01*
X121746500Y-93651000D02*
X114253500Y-93651000D01*
X114253500Y-93651000D02*
X114253500Y-90349000D01*
X116285500Y-92000000D02*
X117047500Y-92000000D01*
X116666500Y-92381000D02*
X116666500Y-91619000D01*
X93460000Y-85111000D02*
X96762000Y-85111000D01*
X93460000Y-86889000D02*
X93460000Y-85111000D01*
X96762000Y-86889000D02*
X93460000Y-86889000D01*
X96762000Y-85111000D02*
X96762000Y-86889000D01*
X89111000Y-71349000D02*
X90889000Y-71349000D01*
X90889000Y-71349000D02*
X90889000Y-74651000D01*
X90889000Y-74651000D02*
X89111000Y-74651000D01*
X89111000Y-74651000D02*
X89111000Y-71349000D01*
X93111000Y-71349000D02*
X94889000Y-71349000D01*
X94889000Y-71349000D02*
X94889000Y-74651000D01*
X94889000Y-74651000D02*
X93111000Y-74651000D01*
X93111000Y-74651000D02*
X93111000Y-71349000D01*
X97111000Y-74651000D02*
X97111000Y-71349000D01*
X98889000Y-74651000D02*
X97111000Y-74651000D01*
X98889000Y-71349000D02*
X98889000Y-74651000D01*
X97111000Y-71349000D02*
X98889000Y-71349000D01*
X93841000Y-81365000D02*
X96635000Y-81365000D01*
X96635000Y-81365000D02*
X96635000Y-82635000D01*
X96635000Y-82635000D02*
X93841000Y-82635000D01*
X93841000Y-82635000D02*
X93841000Y-81365000D01*
D12*
X101835176Y-79733300D02*
X101835176Y-80266700D01*
X101711200Y-80378439D02*
X100288800Y-80378439D01*
X100164824Y-80266700D02*
X100164824Y-79733300D01*
X100288800Y-79621561D02*
X101711200Y-79621561D01*
X101838200Y-79748561D02*
G75*
G03X101711200Y-79621561I-127000J0D01*
G01*
X101713000Y-80377000D02*
G75*
G03X101840000Y-80250000I0J127000D01*
G01*
X100164824Y-80250000D02*
G75*
G03X100291824Y-80377000I127000J0D01*
G01*
X100291824Y-79621561D02*
G75*
G03X100164824Y-79748561I0J-127000D01*
G01*
D11*
X113651000Y-77111000D02*
X113651000Y-78889000D01*
X113651000Y-78889000D02*
X110349000Y-78889000D01*
X110349000Y-78889000D02*
X110349000Y-77111000D01*
X110349000Y-77111000D02*
X113651000Y-77111000D01*
X105603000Y-77635000D02*
X105603000Y-76365000D01*
X108397000Y-77635000D02*
X105603000Y-77635000D01*
X108397000Y-76365000D02*
X108397000Y-77635000D01*
X105603000Y-76365000D02*
X108397000Y-76365000D01*
D10*
X112746500Y-71349000D02*
X105253500Y-71349000D01*
X105253500Y-71349000D02*
X105253500Y-74651000D01*
X112746500Y-74651000D02*
X105253500Y-74651000D01*
X112746500Y-71349000D02*
X112746500Y-74651000D01*
D11*
X112746500Y-74651000D02*
X105253500Y-74651000D01*
X105253500Y-74651000D02*
X105253500Y-71349000D01*
X105253500Y-71349000D02*
X112746500Y-71349000D01*
X112746500Y-71349000D02*
X112746500Y-74651000D01*
X110714500Y-73000000D02*
X109952500Y-73000000D01*
X110333500Y-72619000D02*
X110333500Y-73381000D01*
X107666500Y-82381000D02*
X107666500Y-81619000D01*
X107285500Y-82000000D02*
X108047500Y-82000000D01*
X105253500Y-83651000D02*
X105253500Y-80349000D01*
X112746500Y-83651000D02*
X105253500Y-83651000D01*
X112746500Y-80349000D02*
X112746500Y-83651000D01*
X105253500Y-80349000D02*
X112746500Y-80349000D01*
D10*
X105253500Y-83651000D02*
X105253500Y-80349000D01*
X105253500Y-80349000D02*
X112746500Y-80349000D01*
X112746500Y-83651000D02*
X112746500Y-80349000D01*
X105253500Y-83651000D02*
X112746500Y-83651000D01*
D11*
X107666500Y-92381000D02*
X107666500Y-91619000D01*
X107285500Y-92000000D02*
X108047500Y-92000000D01*
X105253500Y-93651000D02*
X105253500Y-90349000D01*
X112746500Y-93651000D02*
X105253500Y-93651000D01*
X112746500Y-90349000D02*
X112746500Y-93651000D01*
X105253500Y-90349000D02*
X112746500Y-90349000D01*
D10*
X105253500Y-93651000D02*
X105253500Y-90349000D01*
X105253500Y-90349000D02*
X112746500Y-90349000D01*
X112746500Y-93651000D02*
X112746500Y-90349000D01*
X105253500Y-93651000D02*
X112746500Y-93651000D01*
X95746500Y-89349000D02*
X88253500Y-89349000D01*
X88253500Y-89349000D02*
X88253500Y-92651000D01*
X95746500Y-92651000D02*
X88253500Y-92651000D01*
X95746500Y-89349000D02*
X95746500Y-92651000D01*
D11*
X95746500Y-92651000D02*
X88253500Y-92651000D01*
X88253500Y-92651000D02*
X88253500Y-89349000D01*
X88253500Y-89349000D02*
X95746500Y-89349000D01*
X95746500Y-89349000D02*
X95746500Y-92651000D01*
X93714500Y-91000000D02*
X92952500Y-91000000D01*
X93333500Y-90619000D02*
X93333500Y-91381000D01*
X116666500Y-73381000D02*
X116666500Y-72619000D01*
X116285500Y-73000000D02*
X117047500Y-73000000D01*
X114253500Y-74651000D02*
X114253500Y-71349000D01*
X121746500Y-74651000D02*
X114253500Y-74651000D01*
X121746500Y-71349000D02*
X121746500Y-74651000D01*
X114253500Y-71349000D02*
X121746500Y-71349000D01*
D10*
X114253500Y-74651000D02*
X114253500Y-71349000D01*
X114253500Y-71349000D02*
X121746500Y-71349000D01*
X121746500Y-74651000D02*
X121746500Y-71349000D01*
X114253500Y-74651000D02*
X121746500Y-74651000D01*
X105253500Y-88651000D02*
X112746500Y-88651000D01*
X112746500Y-88651000D02*
X112746500Y-85349000D01*
X105253500Y-85349000D02*
X112746500Y-85349000D01*
X105253500Y-88651000D02*
X105253500Y-85349000D01*
D11*
X105253500Y-85349000D02*
X112746500Y-85349000D01*
X112746500Y-85349000D02*
X112746500Y-88651000D01*
X112746500Y-88651000D02*
X105253500Y-88651000D01*
X105253500Y-88651000D02*
X105253500Y-85349000D01*
X107285500Y-87000000D02*
X108047500Y-87000000D01*
X107666500Y-87381000D02*
X107666500Y-86619000D01*
X116666500Y-87381000D02*
X116666500Y-86619000D01*
X116285500Y-87000000D02*
X117047500Y-87000000D01*
X114253500Y-88651000D02*
X114253500Y-85349000D01*
X121746500Y-88651000D02*
X114253500Y-88651000D01*
X121746500Y-85349000D02*
X121746500Y-88651000D01*
X114253500Y-85349000D02*
X121746500Y-85349000D01*
D10*
X114253500Y-88651000D02*
X114253500Y-85349000D01*
X114253500Y-85349000D02*
X121746500Y-85349000D01*
X121746500Y-88651000D02*
X121746500Y-85349000D01*
X114253500Y-88651000D02*
X121746500Y-88651000D01*
D11*
X123650000Y-85000000D02*
X123650000Y-79000000D01*
X123650000Y-79000000D02*
X128350000Y-79000000D01*
X128350000Y-85000000D02*
X123650000Y-85000000D01*
X127850000Y-80735000D02*
X127850000Y-83265000D01*
X127850000Y-83265000D02*
X128350000Y-83265000D01*
X128350000Y-79000000D02*
X128350000Y-80735000D01*
X128350000Y-80735000D02*
X127850000Y-80735000D01*
X128350000Y-85000000D02*
X128350000Y-83265000D01*
X88349000Y-85111000D02*
X91651000Y-85111000D01*
X88349000Y-86889000D02*
X88349000Y-85111000D01*
X91651000Y-86889000D02*
X88349000Y-86889000D01*
X91651000Y-85111000D02*
X91651000Y-86889000D01*
X88349000Y-77111000D02*
X91651000Y-77111000D01*
X88349000Y-78889000D02*
X88349000Y-77111000D01*
X91651000Y-78889000D02*
X88349000Y-78889000D01*
X91651000Y-77111000D02*
X91651000Y-78889000D01*
X91762000Y-81111000D02*
X91762000Y-82889000D01*
X91762000Y-82889000D02*
X88460000Y-82889000D01*
X88460000Y-82889000D02*
X88460000Y-81111000D01*
X88460000Y-81111000D02*
X91762000Y-81111000D01*
X103651000Y-76111000D02*
X103651000Y-77889000D01*
X103651000Y-77889000D02*
X100349000Y-77889000D01*
X100349000Y-77889000D02*
X100349000Y-76111000D01*
X100349000Y-76111000D02*
X103651000Y-76111000D01*
X116349000Y-77111000D02*
X119651000Y-77111000D01*
X116349000Y-78889000D02*
X116349000Y-77111000D01*
X119651000Y-78889000D02*
X116349000Y-78889000D01*
X119651000Y-77111000D02*
X119651000Y-78889000D01*
X119651000Y-80111000D02*
X119651000Y-81889000D01*
X119651000Y-81889000D02*
X116349000Y-81889000D01*
X116349000Y-81889000D02*
X116349000Y-80111000D01*
X116349000Y-80111000D02*
X119651000Y-80111000D01*
X102397000Y-82365000D02*
X102397000Y-83635000D01*
X99603000Y-82365000D02*
X102397000Y-82365000D01*
X99603000Y-83635000D02*
X99603000Y-82365000D01*
X102397000Y-83635000D02*
X99603000Y-83635000D01*
D10*
X96762000Y-76603000D02*
X95238000Y-76603000D01*
X96762000Y-79397000D02*
X95238000Y-79397000D01*
D13*
X95189740Y-76552200D02*
X96810260Y-76552200D01*
X96810260Y-79447800D02*
X95189740Y-79447800D01*
X95189740Y-78520700D02*
X95189740Y-77479300D01*
X96810260Y-78426720D02*
X96810260Y-78520700D01*
X96810260Y-77479300D02*
X96810260Y-77573280D01*
X96810260Y-79325880D02*
X96810260Y-79447800D01*
X96810260Y-76552200D02*
X96810260Y-76674120D01*
X95189740Y-76674120D02*
X95189740Y-76552200D01*
X95189740Y-79447800D02*
X95189740Y-79325880D01*
D11*
X79350000Y-78625000D02*
X78775000Y-78150000D01*
X79350000Y-78650000D02*
X79350000Y-85750000D01*
X78775000Y-78150000D02*
X78775000Y-86250000D01*
X84450000Y-80550000D02*
X84450000Y-79750000D01*
X84450000Y-83850000D02*
X84450000Y-84475000D01*
X82882700Y-85750000D02*
X82481380Y-85750000D01*
X80575000Y-85750000D02*
X79376120Y-85750000D01*
X79376120Y-78650000D02*
X80550000Y-78650000D01*
X82475000Y-78650000D02*
X82874720Y-78650000D01*
D14*
X79385000Y-85770000D02*
X78775000Y-86275000D01*
D11*
X102397000Y-85365000D02*
X102397000Y-86635000D01*
X99603000Y-85365000D02*
X102397000Y-85365000D01*
X99603000Y-86635000D02*
X99603000Y-85365000D01*
X102397000Y-86635000D02*
X99603000Y-86635000D01*
X102397000Y-89635000D02*
X99603000Y-89635000D01*
X99603000Y-89635000D02*
X99603000Y-88365000D01*
X99603000Y-88365000D02*
X102397000Y-88365000D01*
X102397000Y-88365000D02*
X102397000Y-89635000D01*
D15*
X117357142Y-90107142D02*
X117309523Y-90154761D01*
X117166666Y-90202380D01*
X117071428Y-90202380D01*
X116928571Y-90154761D01*
X116833333Y-90059523D01*
X116785714Y-89964285D01*
X116738095Y-89773809D01*
X116738095Y-89630952D01*
X116785714Y-89440476D01*
X116833333Y-89345238D01*
X116928571Y-89250000D01*
X117071428Y-89202380D01*
X117166666Y-89202380D01*
X117309523Y-89250000D01*
X117357142Y-89297619D01*
X118309523Y-90202380D02*
X117738095Y-90202380D01*
X118023809Y-90202380D02*
X118023809Y-89202380D01*
X117928571Y-89345238D01*
X117833333Y-89440476D01*
X117738095Y-89488095D01*
X119166666Y-89202380D02*
X118976190Y-89202380D01*
X118880952Y-89250000D01*
X118833333Y-89297619D01*
X118738095Y-89440476D01*
X118690476Y-89630952D01*
X118690476Y-90011904D01*
X118738095Y-90107142D01*
X118785714Y-90154761D01*
X118880952Y-90202380D01*
X119071428Y-90202380D01*
X119166666Y-90154761D01*
X119214285Y-90107142D01*
X119261904Y-90011904D01*
X119261904Y-89773809D01*
X119214285Y-89678571D01*
X119166666Y-89630952D01*
X119071428Y-89583333D01*
X118880952Y-89583333D01*
X118785714Y-89630952D01*
X118738095Y-89678571D01*
X118690476Y-89773809D01*
X97583333Y-86357142D02*
X97535714Y-86404761D01*
X97392857Y-86452380D01*
X97297619Y-86452380D01*
X97154761Y-86404761D01*
X97059523Y-86309523D01*
X97011904Y-86214285D01*
X96964285Y-86023809D01*
X96964285Y-85880952D01*
X97011904Y-85690476D01*
X97059523Y-85595238D01*
X97154761Y-85500000D01*
X97297619Y-85452380D01*
X97392857Y-85452380D01*
X97535714Y-85500000D01*
X97583333Y-85547619D01*
X98535714Y-86452380D02*
X97964285Y-86452380D01*
X98250000Y-86452380D02*
X98250000Y-85452380D01*
X98154761Y-85595238D01*
X98059523Y-85690476D01*
X97964285Y-85738095D01*
X88657142Y-73166666D02*
X88704761Y-73214285D01*
X88752380Y-73357142D01*
X88752380Y-73452380D01*
X88704761Y-73595238D01*
X88609523Y-73690476D01*
X88514285Y-73738095D01*
X88323809Y-73785714D01*
X88180952Y-73785714D01*
X87990476Y-73738095D01*
X87895238Y-73690476D01*
X87800000Y-73595238D01*
X87752380Y-73452380D01*
X87752380Y-73357142D01*
X87800000Y-73214285D01*
X87847619Y-73166666D01*
X87847619Y-72785714D02*
X87800000Y-72738095D01*
X87752380Y-72642857D01*
X87752380Y-72404761D01*
X87800000Y-72309523D01*
X87847619Y-72261904D01*
X87942857Y-72214285D01*
X88038095Y-72214285D01*
X88180952Y-72261904D01*
X88752380Y-72833333D01*
X88752380Y-72214285D01*
X92657142Y-73166666D02*
X92704761Y-73214285D01*
X92752380Y-73357142D01*
X92752380Y-73452380D01*
X92704761Y-73595238D01*
X92609523Y-73690476D01*
X92514285Y-73738095D01*
X92323809Y-73785714D01*
X92180952Y-73785714D01*
X91990476Y-73738095D01*
X91895238Y-73690476D01*
X91800000Y-73595238D01*
X91752380Y-73452380D01*
X91752380Y-73357142D01*
X91800000Y-73214285D01*
X91847619Y-73166666D01*
X91752380Y-72833333D02*
X91752380Y-72214285D01*
X92133333Y-72547619D01*
X92133333Y-72404761D01*
X92180952Y-72309523D01*
X92228571Y-72261904D01*
X92323809Y-72214285D01*
X92561904Y-72214285D01*
X92657142Y-72261904D01*
X92704761Y-72309523D01*
X92752380Y-72404761D01*
X92752380Y-72690476D01*
X92704761Y-72785714D01*
X92657142Y-72833333D01*
X96657142Y-73166666D02*
X96704761Y-73214285D01*
X96752380Y-73357142D01*
X96752380Y-73452380D01*
X96704761Y-73595238D01*
X96609523Y-73690476D01*
X96514285Y-73738095D01*
X96323809Y-73785714D01*
X96180952Y-73785714D01*
X95990476Y-73738095D01*
X95895238Y-73690476D01*
X95800000Y-73595238D01*
X95752380Y-73452380D01*
X95752380Y-73357142D01*
X95800000Y-73214285D01*
X95847619Y-73166666D01*
X96085714Y-72309523D02*
X96752380Y-72309523D01*
X95704761Y-72547619D02*
X96419047Y-72785714D01*
X96419047Y-72166666D01*
X97583333Y-82357142D02*
X97535714Y-82404761D01*
X97392857Y-82452380D01*
X97297619Y-82452380D01*
X97154761Y-82404761D01*
X97059523Y-82309523D01*
X97011904Y-82214285D01*
X96964285Y-82023809D01*
X96964285Y-81880952D01*
X97011904Y-81690476D01*
X97059523Y-81595238D01*
X97154761Y-81500000D01*
X97297619Y-81452380D01*
X97392857Y-81452380D01*
X97535714Y-81500000D01*
X97583333Y-81547619D01*
X98488095Y-81452380D02*
X98011904Y-81452380D01*
X97964285Y-81928571D01*
X98011904Y-81880952D01*
X98107142Y-81833333D01*
X98345238Y-81833333D01*
X98440476Y-81880952D01*
X98488095Y-81928571D01*
X98535714Y-82023809D01*
X98535714Y-82261904D01*
X98488095Y-82357142D01*
X98440476Y-82404761D01*
X98345238Y-82452380D01*
X98107142Y-82452380D01*
X98011904Y-82404761D01*
X97964285Y-82357142D01*
D16*
X102601833Y-80317500D02*
X102559500Y-80359833D01*
X102432500Y-80402166D01*
X102347833Y-80402166D01*
X102220833Y-80359833D01*
X102136166Y-80275166D01*
X102093833Y-80190500D01*
X102051500Y-80021166D01*
X102051500Y-79894166D01*
X102093833Y-79724833D01*
X102136166Y-79640166D01*
X102220833Y-79555500D01*
X102347833Y-79513166D01*
X102432500Y-79513166D01*
X102559500Y-79555500D01*
X102601833Y-79597833D01*
X103363833Y-79513166D02*
X103194500Y-79513166D01*
X103109833Y-79555500D01*
X103067500Y-79597833D01*
X102982833Y-79724833D01*
X102940500Y-79894166D01*
X102940500Y-80232833D01*
X102982833Y-80317500D01*
X103025166Y-80359833D01*
X103109833Y-80402166D01*
X103279166Y-80402166D01*
X103363833Y-80359833D01*
X103406166Y-80317500D01*
X103448500Y-80232833D01*
X103448500Y-80021166D01*
X103406166Y-79936500D01*
X103363833Y-79894166D01*
X103279166Y-79851833D01*
X103109833Y-79851833D01*
X103025166Y-79894166D01*
X102982833Y-79936500D01*
X102940500Y-80021166D01*
D15*
X114583333Y-78357142D02*
X114535714Y-78404761D01*
X114392857Y-78452380D01*
X114297619Y-78452380D01*
X114154761Y-78404761D01*
X114059523Y-78309523D01*
X114011904Y-78214285D01*
X113964285Y-78023809D01*
X113964285Y-77880952D01*
X114011904Y-77690476D01*
X114059523Y-77595238D01*
X114154761Y-77500000D01*
X114297619Y-77452380D01*
X114392857Y-77452380D01*
X114535714Y-77500000D01*
X114583333Y-77547619D01*
X114916666Y-77452380D02*
X115583333Y-77452380D01*
X115154761Y-78452380D01*
X105833333Y-78857142D02*
X105785714Y-78904761D01*
X105642857Y-78952380D01*
X105547619Y-78952380D01*
X105404761Y-78904761D01*
X105309523Y-78809523D01*
X105261904Y-78714285D01*
X105214285Y-78523809D01*
X105214285Y-78380952D01*
X105261904Y-78190476D01*
X105309523Y-78095238D01*
X105404761Y-78000000D01*
X105547619Y-77952380D01*
X105642857Y-77952380D01*
X105785714Y-78000000D01*
X105833333Y-78047619D01*
X106404761Y-78380952D02*
X106309523Y-78333333D01*
X106261904Y-78285714D01*
X106214285Y-78190476D01*
X106214285Y-78142857D01*
X106261904Y-78047619D01*
X106309523Y-78000000D01*
X106404761Y-77952380D01*
X106595238Y-77952380D01*
X106690476Y-78000000D01*
X106738095Y-78047619D01*
X106785714Y-78142857D01*
X106785714Y-78190476D01*
X106738095Y-78285714D01*
X106690476Y-78333333D01*
X106595238Y-78380952D01*
X106404761Y-78380952D01*
X106309523Y-78428571D01*
X106261904Y-78476190D01*
X106214285Y-78571428D01*
X106214285Y-78761904D01*
X106261904Y-78857142D01*
X106309523Y-78904761D01*
X106404761Y-78952380D01*
X106595238Y-78952380D01*
X106690476Y-78904761D01*
X106738095Y-78857142D01*
X106785714Y-78761904D01*
X106785714Y-78571428D01*
X106738095Y-78476190D01*
X106690476Y-78428571D01*
X106595238Y-78380952D01*
X111083333Y-75857142D02*
X111035714Y-75904761D01*
X110892857Y-75952380D01*
X110797619Y-75952380D01*
X110654761Y-75904761D01*
X110559523Y-75809523D01*
X110511904Y-75714285D01*
X110464285Y-75523809D01*
X110464285Y-75380952D01*
X110511904Y-75190476D01*
X110559523Y-75095238D01*
X110654761Y-75000000D01*
X110797619Y-74952380D01*
X110892857Y-74952380D01*
X111035714Y-75000000D01*
X111083333Y-75047619D01*
X111559523Y-75952380D02*
X111750000Y-75952380D01*
X111845238Y-75904761D01*
X111892857Y-75857142D01*
X111988095Y-75714285D01*
X112035714Y-75523809D01*
X112035714Y-75142857D01*
X111988095Y-75047619D01*
X111940476Y-75000000D01*
X111845238Y-74952380D01*
X111654761Y-74952380D01*
X111559523Y-75000000D01*
X111511904Y-75047619D01*
X111464285Y-75142857D01*
X111464285Y-75380952D01*
X111511904Y-75476190D01*
X111559523Y-75523809D01*
X111654761Y-75571428D01*
X111845238Y-75571428D01*
X111940476Y-75523809D01*
X111988095Y-75476190D01*
X112035714Y-75380952D01*
X108107142Y-80107142D02*
X108059523Y-80154761D01*
X107916666Y-80202380D01*
X107821428Y-80202380D01*
X107678571Y-80154761D01*
X107583333Y-80059523D01*
X107535714Y-79964285D01*
X107488095Y-79773809D01*
X107488095Y-79630952D01*
X107535714Y-79440476D01*
X107583333Y-79345238D01*
X107678571Y-79250000D01*
X107821428Y-79202380D01*
X107916666Y-79202380D01*
X108059523Y-79250000D01*
X108107142Y-79297619D01*
X109059523Y-80202380D02*
X108488095Y-80202380D01*
X108773809Y-80202380D02*
X108773809Y-79202380D01*
X108678571Y-79345238D01*
X108583333Y-79440476D01*
X108488095Y-79488095D01*
X109678571Y-79202380D02*
X109773809Y-79202380D01*
X109869047Y-79250000D01*
X109916666Y-79297619D01*
X109964285Y-79392857D01*
X110011904Y-79583333D01*
X110011904Y-79821428D01*
X109964285Y-80011904D01*
X109916666Y-80107142D01*
X109869047Y-80154761D01*
X109773809Y-80202380D01*
X109678571Y-80202380D01*
X109583333Y-80154761D01*
X109535714Y-80107142D01*
X109488095Y-80011904D01*
X109440476Y-79821428D01*
X109440476Y-79583333D01*
X109488095Y-79392857D01*
X109535714Y-79297619D01*
X109583333Y-79250000D01*
X109678571Y-79202380D01*
X108357142Y-90107142D02*
X108309523Y-90154761D01*
X108166666Y-90202380D01*
X108071428Y-90202380D01*
X107928571Y-90154761D01*
X107833333Y-90059523D01*
X107785714Y-89964285D01*
X107738095Y-89773809D01*
X107738095Y-89630952D01*
X107785714Y-89440476D01*
X107833333Y-89345238D01*
X107928571Y-89250000D01*
X108071428Y-89202380D01*
X108166666Y-89202380D01*
X108309523Y-89250000D01*
X108357142Y-89297619D01*
X109309523Y-90202380D02*
X108738095Y-90202380D01*
X109023809Y-90202380D02*
X109023809Y-89202380D01*
X108928571Y-89345238D01*
X108833333Y-89440476D01*
X108738095Y-89488095D01*
X110261904Y-90202380D02*
X109690476Y-90202380D01*
X109976190Y-90202380D02*
X109976190Y-89202380D01*
X109880952Y-89345238D01*
X109785714Y-89440476D01*
X109690476Y-89488095D01*
X91357142Y-93957142D02*
X91309523Y-94004761D01*
X91166666Y-94052380D01*
X91071428Y-94052380D01*
X90928571Y-94004761D01*
X90833333Y-93909523D01*
X90785714Y-93814285D01*
X90738095Y-93623809D01*
X90738095Y-93480952D01*
X90785714Y-93290476D01*
X90833333Y-93195238D01*
X90928571Y-93100000D01*
X91071428Y-93052380D01*
X91166666Y-93052380D01*
X91309523Y-93100000D01*
X91357142Y-93147619D01*
X92309523Y-94052380D02*
X91738095Y-94052380D01*
X92023809Y-94052380D02*
X92023809Y-93052380D01*
X91928571Y-93195238D01*
X91833333Y-93290476D01*
X91738095Y-93338095D01*
X92690476Y-93147619D02*
X92738095Y-93100000D01*
X92833333Y-93052380D01*
X93071428Y-93052380D01*
X93166666Y-93100000D01*
X93214285Y-93147619D01*
X93261904Y-93242857D01*
X93261904Y-93338095D01*
X93214285Y-93480952D01*
X92642857Y-94052380D01*
X93261904Y-94052380D01*
X117107142Y-75857142D02*
X117059523Y-75904761D01*
X116916666Y-75952380D01*
X116821428Y-75952380D01*
X116678571Y-75904761D01*
X116583333Y-75809523D01*
X116535714Y-75714285D01*
X116488095Y-75523809D01*
X116488095Y-75380952D01*
X116535714Y-75190476D01*
X116583333Y-75095238D01*
X116678571Y-75000000D01*
X116821428Y-74952380D01*
X116916666Y-74952380D01*
X117059523Y-75000000D01*
X117107142Y-75047619D01*
X118059523Y-75952380D02*
X117488095Y-75952380D01*
X117773809Y-75952380D02*
X117773809Y-74952380D01*
X117678571Y-75095238D01*
X117583333Y-75190476D01*
X117488095Y-75238095D01*
X118392857Y-74952380D02*
X119011904Y-74952380D01*
X118678571Y-75333333D01*
X118821428Y-75333333D01*
X118916666Y-75380952D01*
X118964285Y-75428571D01*
X119011904Y-75523809D01*
X119011904Y-75761904D01*
X118964285Y-75857142D01*
X118916666Y-75904761D01*
X118821428Y-75952380D01*
X118535714Y-75952380D01*
X118440476Y-75904761D01*
X118392857Y-75857142D01*
X108357142Y-85107142D02*
X108309523Y-85154761D01*
X108166666Y-85202380D01*
X108071428Y-85202380D01*
X107928571Y-85154761D01*
X107833333Y-85059523D01*
X107785714Y-84964285D01*
X107738095Y-84773809D01*
X107738095Y-84630952D01*
X107785714Y-84440476D01*
X107833333Y-84345238D01*
X107928571Y-84250000D01*
X108071428Y-84202380D01*
X108166666Y-84202380D01*
X108309523Y-84250000D01*
X108357142Y-84297619D01*
X109309523Y-85202380D02*
X108738095Y-85202380D01*
X109023809Y-85202380D02*
X109023809Y-84202380D01*
X108928571Y-84345238D01*
X108833333Y-84440476D01*
X108738095Y-84488095D01*
X110166666Y-84535714D02*
X110166666Y-85202380D01*
X109928571Y-84154761D02*
X109690476Y-84869047D01*
X110309523Y-84869047D01*
X117357142Y-85107142D02*
X117309523Y-85154761D01*
X117166666Y-85202380D01*
X117071428Y-85202380D01*
X116928571Y-85154761D01*
X116833333Y-85059523D01*
X116785714Y-84964285D01*
X116738095Y-84773809D01*
X116738095Y-84630952D01*
X116785714Y-84440476D01*
X116833333Y-84345238D01*
X116928571Y-84250000D01*
X117071428Y-84202380D01*
X117166666Y-84202380D01*
X117309523Y-84250000D01*
X117357142Y-84297619D01*
X118309523Y-85202380D02*
X117738095Y-85202380D01*
X118023809Y-85202380D02*
X118023809Y-84202380D01*
X117928571Y-84345238D01*
X117833333Y-84440476D01*
X117738095Y-84488095D01*
X119214285Y-84202380D02*
X118738095Y-84202380D01*
X118690476Y-84678571D01*
X118738095Y-84630952D01*
X118833333Y-84583333D01*
X119071428Y-84583333D01*
X119166666Y-84630952D01*
X119214285Y-84678571D01*
X119261904Y-84773809D01*
X119261904Y-85011904D01*
X119214285Y-85107142D01*
X119166666Y-85154761D01*
X119071428Y-85202380D01*
X118833333Y-85202380D01*
X118738095Y-85154761D01*
X118690476Y-85107142D01*
X125666666Y-85452380D02*
X125666666Y-86166666D01*
X125619047Y-86309523D01*
X125523809Y-86404761D01*
X125380952Y-86452380D01*
X125285714Y-86452380D01*
X126666666Y-86452380D02*
X126095238Y-86452380D01*
X126380952Y-86452380D02*
X126380952Y-85452380D01*
X126285714Y-85595238D01*
X126190476Y-85690476D01*
X126095238Y-85738095D01*
X87333333Y-86202380D02*
X86857142Y-86202380D01*
X86857142Y-85202380D01*
X88190476Y-86202380D02*
X87619047Y-86202380D01*
X87904761Y-86202380D02*
X87904761Y-85202380D01*
X87809523Y-85345238D01*
X87714285Y-85440476D01*
X87619047Y-85488095D01*
X89833333Y-76864880D02*
X89357142Y-76864880D01*
X89357142Y-75864880D01*
X90119047Y-75960119D02*
X90166666Y-75912500D01*
X90261904Y-75864880D01*
X90500000Y-75864880D01*
X90595238Y-75912500D01*
X90642857Y-75960119D01*
X90690476Y-76055357D01*
X90690476Y-76150595D01*
X90642857Y-76293452D01*
X90071428Y-76864880D01*
X90690476Y-76864880D01*
X89944333Y-80864880D02*
X89468142Y-80864880D01*
X89468142Y-79864880D01*
X90182428Y-79864880D02*
X90801476Y-79864880D01*
X90468142Y-80245833D01*
X90611000Y-80245833D01*
X90706238Y-80293452D01*
X90753857Y-80341071D01*
X90801476Y-80436309D01*
X90801476Y-80674404D01*
X90753857Y-80769642D01*
X90706238Y-80817261D01*
X90611000Y-80864880D01*
X90325285Y-80864880D01*
X90230047Y-80817261D01*
X90182428Y-80769642D01*
X102333333Y-75702380D02*
X101857142Y-75702380D01*
X101857142Y-74702380D01*
X103095238Y-75035714D02*
X103095238Y-75702380D01*
X102857142Y-74654761D02*
X102619047Y-75369047D01*
X103238095Y-75369047D01*
X120583333Y-78452380D02*
X120107142Y-78452380D01*
X120107142Y-77452380D01*
X121392857Y-77452380D02*
X120916666Y-77452380D01*
X120869047Y-77928571D01*
X120916666Y-77880952D01*
X121011904Y-77833333D01*
X121250000Y-77833333D01*
X121345238Y-77880952D01*
X121392857Y-77928571D01*
X121440476Y-78023809D01*
X121440476Y-78261904D01*
X121392857Y-78357142D01*
X121345238Y-78404761D01*
X121250000Y-78452380D01*
X121011904Y-78452380D01*
X120916666Y-78404761D01*
X120869047Y-78357142D01*
X120583333Y-81452380D02*
X120107142Y-81452380D01*
X120107142Y-80452380D01*
X121345238Y-80452380D02*
X121154761Y-80452380D01*
X121059523Y-80500000D01*
X121011904Y-80547619D01*
X120916666Y-80690476D01*
X120869047Y-80880952D01*
X120869047Y-81261904D01*
X120916666Y-81357142D01*
X120964285Y-81404761D01*
X121059523Y-81452380D01*
X121250000Y-81452380D01*
X121345238Y-81404761D01*
X121392857Y-81357142D01*
X121440476Y-81261904D01*
X121440476Y-81023809D01*
X121392857Y-80928571D01*
X121345238Y-80880952D01*
X121250000Y-80833333D01*
X121059523Y-80833333D01*
X120964285Y-80880952D01*
X120916666Y-80928571D01*
X120869047Y-81023809D01*
X103333333Y-83452380D02*
X103000000Y-82976190D01*
X102761904Y-83452380D02*
X102761904Y-82452380D01*
X103142857Y-82452380D01*
X103238095Y-82500000D01*
X103285714Y-82547619D01*
X103333333Y-82642857D01*
X103333333Y-82785714D01*
X103285714Y-82880952D01*
X103238095Y-82928571D01*
X103142857Y-82976190D01*
X102761904Y-82976190D01*
X104190476Y-82785714D02*
X104190476Y-83452380D01*
X103952380Y-82404761D02*
X103714285Y-83119047D01*
X104333333Y-83119047D01*
D16*
X96072666Y-75513166D02*
X96072666Y-76232833D01*
X96115000Y-76317500D01*
X96157333Y-76359833D01*
X96242000Y-76402166D01*
X96411333Y-76402166D01*
X96496000Y-76359833D01*
X96538333Y-76317500D01*
X96580666Y-76232833D01*
X96580666Y-75513166D01*
X97469666Y-76402166D02*
X96961666Y-76402166D01*
X97215666Y-76402166D02*
X97215666Y-75513166D01*
X97131000Y-75640166D01*
X97046333Y-75724833D01*
X96961666Y-75767166D01*
D15*
X85452380Y-83938095D02*
X86261904Y-83938095D01*
X86357142Y-83890476D01*
X86404761Y-83842857D01*
X86452380Y-83747619D01*
X86452380Y-83557142D01*
X86404761Y-83461904D01*
X86357142Y-83414285D01*
X86261904Y-83366666D01*
X85452380Y-83366666D01*
X86404761Y-82938095D02*
X86452380Y-82795238D01*
X86452380Y-82557142D01*
X86404761Y-82461904D01*
X86357142Y-82414285D01*
X86261904Y-82366666D01*
X86166666Y-82366666D01*
X86071428Y-82414285D01*
X86023809Y-82461904D01*
X85976190Y-82557142D01*
X85928571Y-82747619D01*
X85880952Y-82842857D01*
X85833333Y-82890476D01*
X85738095Y-82938095D01*
X85642857Y-82938095D01*
X85547619Y-82890476D01*
X85500000Y-82842857D01*
X85452380Y-82747619D01*
X85452380Y-82509523D01*
X85500000Y-82366666D01*
X85928571Y-81604761D02*
X85976190Y-81461904D01*
X86023809Y-81414285D01*
X86119047Y-81366666D01*
X86261904Y-81366666D01*
X86357142Y-81414285D01*
X86404761Y-81461904D01*
X86452380Y-81557142D01*
X86452380Y-81938095D01*
X85452380Y-81938095D01*
X85452380Y-81604761D01*
X85500000Y-81509523D01*
X85547619Y-81461904D01*
X85642857Y-81414285D01*
X85738095Y-81414285D01*
X85833333Y-81461904D01*
X85880952Y-81509523D01*
X85928571Y-81604761D01*
X85928571Y-81938095D01*
X86452380Y-80414285D02*
X86452380Y-80985714D01*
X86452380Y-80700000D02*
X85452380Y-80700000D01*
X85595238Y-80795238D01*
X85690476Y-80890476D01*
X85738095Y-80985714D01*
X103333333Y-86452380D02*
X103000000Y-85976190D01*
X102761904Y-86452380D02*
X102761904Y-85452380D01*
X103142857Y-85452380D01*
X103238095Y-85500000D01*
X103285714Y-85547619D01*
X103333333Y-85642857D01*
X103333333Y-85785714D01*
X103285714Y-85880952D01*
X103238095Y-85928571D01*
X103142857Y-85976190D01*
X102761904Y-85976190D01*
X104285714Y-86452380D02*
X103714285Y-86452380D01*
X104000000Y-86452380D02*
X104000000Y-85452380D01*
X103904761Y-85595238D01*
X103809523Y-85690476D01*
X103714285Y-85738095D01*
X100833333Y-90952380D02*
X100500000Y-90476190D01*
X100261904Y-90952380D02*
X100261904Y-89952380D01*
X100642857Y-89952380D01*
X100738095Y-90000000D01*
X100785714Y-90047619D01*
X100833333Y-90142857D01*
X100833333Y-90285714D01*
X100785714Y-90380952D01*
X100738095Y-90428571D01*
X100642857Y-90476190D01*
X100261904Y-90476190D01*
X101214285Y-90047619D02*
X101261904Y-90000000D01*
X101357142Y-89952380D01*
X101595238Y-89952380D01*
X101690476Y-90000000D01*
X101738095Y-90047619D01*
X101785714Y-90142857D01*
X101785714Y-90238095D01*
X101738095Y-90380952D01*
X101166666Y-90952380D01*
X101785714Y-90952380D01*
M02*
